SplineFontDB: 3.2
FontName: Roland
FullName: Roland
FamilyName: Roland
Weight: Bold
Copyright: Copyright (c) 2020, Roland Bernard
UComments: "2020-8-31: Created with FontForge (http://fontforge.org)"
Version: 001.000
ItalicAngle: 0
UnderlinePosition: -100
UnderlineWidth: 50
Ascent: 800
Descent: 200
InvalidEm: 0
LayerCount: 2
Layer: 0 0 "Back" 1
Layer: 1 0 "Fore" 0
XUID: [1021 36 1614478912 3279787]
FSType: 0
OS2Version: 0
OS2_WeightWidthSlopeOnly: 0
OS2_UseTypoMetrics: 1
CreationTime: 1598898917
ModificationTime: 1600112856
PfmFamily: 17
TTFWeight: 1000
TTFWidth: 5
LineGap: 90
VLineGap: 0
OS2TypoAscent: 0
OS2TypoAOffset: 1
OS2TypoDescent: 0
OS2TypoDOffset: 1
OS2TypoLinegap: 90
OS2WinAscent: 0
OS2WinAOffset: 1
OS2WinDescent: 0
OS2WinDOffset: 1
HheadAscent: 0
HheadAOffset: 1
HheadDescent: 0
HheadDOffset: 1
OS2CapHeight: 750
OS2XHeight: 500
OS2Vendor: 'PfEd'
MarkAttachClasses: 1
DEI: 91125
Encoding: UnicodeBmp
UnicodeInterp: none
NameList: AGL For New Fonts
DisplaySize: -48
AntiAlias: 1
FitToEm: 0
WinInfo: 0 30 12
BeginPrivate: 1
BlueValues 23 [-20 0 500 520 750 770]
EndPrivate
BeginChars: 65536 153

StartChar: X
Encoding: 88 88 0
Width: 599
Flags: MW
LayerCount: 2
Fore
SplineSet
30 750 m 5
 194.3515625 750 l 5
 299.67578125 539.3515625 l 5
 405 750 l 5
 569.3515625 750 l 5
 381.8515625 375 l 5
 569.3515625 0 l 5
 405 0 l 5
 299.67578125 210.6484375 l 5
 194.3515625 0 l 5
 30 0 l 5
 217.5 375 l 5
 30 750 l 5
EndSplineSet
EndChar

StartChar: Q
Encoding: 81 81 1
Width: 742
Flags: MW
LayerCount: 2
Fore
SplineSet
345 770 m 2
 346 770 l 2
 508 769.998046875 640 637.009765625 640 475 c 2
 640 275 l 2
 640 220.083007812 624.712890625 168.514648438 598.2109375 124.3203125 c 1
 722.53125 0 l 1
 517.46875 0 l 1
 495.6796875 21.7890625 l 1
 451.502929688 -4.7021484375 400.893554688 -20 346 -20 c 2
 345 -20 l 2
 182.963867188 -20.0009765625 50 112.963867188 50 275 c 2
 50 475 l 2
 50 637.036132812 182.963867188 770.001953125 345 770 c 2
345 630 m 2
 264.030273438 630.002929688 200 555.969726562 200 475 c 2
 200 275 l 2
 200 194.030273438 264.030273438 120 345 120 c 2
 346 120 l 2
 361.244140625 120 375.954101562 122.88671875 389.662109375 127.806640625 c 1
 268.2421875 249.2265625 l 1
 473.3046875 249.2265625 l 1
 485.333984375 237.197265625 l 1
 488.37890625 249.444335938 490 262.133789062 490 275 c 2
 490 475 l 2
 490 555.935546875 426.921875 629.997070312 346 630 c 2
 345 630 l 2
EndSplineSet
EndChar

StartChar: e
Encoding: 101 101 2
Width: 495
Flags: MW
LayerCount: 2
Fore
SplineSet
247.5 520 m 2
 247.571289062 520 l 2
 358.48828125 519.98046875 450 428.42578125 450 317.5 c 2
 450 185 l 1
 195 185 l 1
 195 182.5 l 2
 195 152.6171875 217.6171875 120 247.5 120 c 2
 262.5 120 l 2
 278.61328125 120 292.604492188 129.490234375 302.0859375 142.9140625 c 1
 405.35546875 39.64453125 l 1
 368.599609375 2.888671875 317.974609375 -20 262.5 -20 c 2
 247.5 -20 l 2
 136.55078125 -20 45 71.55078125 45 182.5 c 2
 45 317.5 l 2
 45 428.44921875 136.55078125 520.01953125 247.5 520 c 2
247.5 380 m 2
 217.6171875 380.0234375 195 347.3828125 195 317.5 c 2
 195 315 l 1
 300 315 l 1
 300 317.5 l 2
 300 347.362304688 277.415039062 379.9765625 247.563476562 380 c 2
 247.5 380 l 2
EndSplineSet
EndChar

StartChar: exclam
Encoding: 33 33 3
Width: 300
Flags: MW
LayerCount: 2
Fore
SplineSet
75 250 m 5
 75 750 l 5
 225 750 l 5
 225 250 l 5
 75 250 l 5
50 80 m 4
 50 135.228515625 94.771484375 180 150 180 c 4
 205.228515625 180 250 135.228515625 250 80 c 4
 250 24.771484375 205.228515625 -20 150 -20 c 4
 94.771484375 -20 50 24.771484375 50 80 c 4
EndSplineSet
EndChar

StartChar: quotedbl
Encoding: 34 34 4
Width: 500
Flags: MW
LayerCount: 2
Fore
SplineSet
50 500 m 1
 50 750 l 1
 200 750 l 1
 200 500 l 1
 50 500 l 1
300 500 m 5
 300 750 l 5
 450 750 l 5
 450 500 l 5
 300 500 l 5
EndSplineSet
EndChar

StartChar: numbersign
Encoding: 35 35 5
Width: 637
Flags: MW
LayerCount: 2
Fore
SplineSet
240.00390625 750 m 1
 391.52734375 750 l 1
 346.525390625 570 l 1
 382.501953125 570 l 1
 427.501953125 750 l 1
 579.029296875 750 l 1
 534.02734375 570 l 1
 602.8828125 570 l 1
 567.8828125 430 l 1
 499.02734375 430 l 1
 471.525390625 320 l 1
 540.3828125 320 l 1
 505.3828125 180 l 1
 436.525390625 180 l 1
 391.525390625 0 l 1
 240.001953125 0 l 1
 285.001953125 180 l 1
 249.02734375 180 l 1
 204.02734375 0 l 1
 52.5 0 l 1
 97.50390625 180 l 1
 35 180 l 1
 70 320 l 1
 132.50390625 320 l 1
 160.00390625 430 l 1
 97.5 430 l 1
 132.501953125 570 l 1
 195.00390625 570 l 1
 240.00390625 750 l 1
311.525390625 430 m 1
 284.02734375 320 l 1
 320.001953125 320 l 1
 347.501953125 430 l 1
 311.525390625 430 l 1
EndSplineSet
EndChar

StartChar: zero
Encoding: 48 48 6
Width: 505
Flags: HMW
LayerCount: 2
Fore
SplineSet
252.5 770 m 0
 363.44921875 770 455 678.44921875 455 567.5 c 2
 455 182.5 l 2
 455 71.55078125 363.44921875 -20 252.5 -20 c 0
 141.55078125 -20 50 71.55078125 50 182.5 c 2
 50 567.5 l 2
 50 678.44921875 141.55078125 770 252.5 770 c 0
252.5 630 m 0
 222.6171875 630 200 597.3828125 200 567.5 c 2
 200 182.5 l 2
 200 152.6171875 222.6171875 120 252.5 120 c 0
 282.3828125 120 305 152.6171875 305 182.5 c 2
 305 567.5 l 2
 305 597.3828125 282.3828125 630 252.5 630 c 0
EndSplineSet
EndChar

StartChar: one
Encoding: 49 49 7
Width: 250
Flags: HMW
LayerCount: 2
Fore
SplineSet
50 750 m 1
 200 750 l 1
 200 0 l 1
 50 0 l 1
 50 608.916015625 l 1
 50 608.986328125 l 1
 50 750 l 1
EndSplineSet
EndChar

StartChar: two
Encoding: 50 50 8
Width: 475
Flags: HMW
LayerCount: 2
Fore
SplineSet
237.5 770 m 2
 237.606445312 770 l 2
 348.5078125 769.970703125 440 678.4140625 440 567.5 c 0
 440 536.916015625 433.03125 507.8125 420.62890625 481.6875 c 2
 262.943359375 140 l 1
 420 140 l 1
 420 0 l 1
 35 0 l 1
 285.88671875 544.826171875 l 2
 288.54296875 552.176757812 290 559.92578125 290 567.5 c 0
 290 597.362304688 267.415039062 629.9765625 237.563476562 630 c 2
 237.5 630 l 2
 207.6171875 630.0234375 185 597.3828125 185 567.5 c 1
 35 567.5 l 1
 35 678.44921875 126.55078125 770.029296875 237.5 770 c 2
EndSplineSet
EndChar

StartChar: three
Encoding: 51 51 9
Width: 490
Flags: HMW
LayerCount: 2
Fore
SplineSet
209.375 770 m 2
 265.880859375 770 l 2
 361.266601562 770 440.1875 691.018554688 440.1875 595.625 c 2
 440.1875 479.375 l 2
 440.1875 440.421875 417.0234375 404.21484375 394.95703125 375 c 1
 417.0234375 345.78515625 440.1875 309.578125 440.1875 270.625 c 2
 440.1875 154.375 l 2
 440.1875 58.9853515625 361.2734375 -20 265.893554688 -20 c 2
 209.375 -20 l 2
 113.958984375 -20 35 58.958984375 35 154.375 c 1
 185 154.375 l 1
 185 140.024414062 195.024414062 120 209.375 120 c 2
 265.864257812 120 l 2
 280.186523438 120 290.1875 140.041992188 290.1875 154.375 c 2
 290.1875 270.625 l 2
 290.1875 284.975585938 280.163085938 305 265.8125 305 c 2
 166.875 305 l 1
 166.875 445 l 1
 265.8125 445 l 2
 280.163085938 445 290.1875 465.024414062 290.1875 479.375 c 2
 290.1875 595.625 l 2
 290.1875 609.953125 280.193359375 630 265.877929688 630 c 2
 209.375 630 l 2
 195.024414062 630 185 609.975585938 185 595.625 c 1
 35 595.625 l 1
 35 691.041015625 113.958984375 770 209.375 770 c 2
EndSplineSet
EndChar

StartChar: four
Encoding: 52 52 10
Width: 485
Flags: HMW
LayerCount: 2
Fore
SplineSet
54.919921875 750 m 1
 205.0703125 750 l 1
 189.802734375 410.5 l 0
 189.670364315 407.55738388 189.744140625 403.735351562 190 401 c 0
 190.315429688 397.622070312 192.240234375 390 195 390 c 2
 285 390 l 1
 285 750 l 1
 435 750 l 1
 435 0 l 1
 285 0 l 1
 285 250 l 1
 195 250 l 2
 109.400390625 250 40 319.400390625 40 405 c 0
 40 407.26953125 40.0498046875 409.51953125 40.150390625 411.759765625 c 2
 54.919921875 750 l 1
EndSplineSet
EndChar

StartChar: five
Encoding: 53 53 11
Width: 526
Flags: HMW
LayerCount: 2
Fore
SplineSet
70 750 m 1
 456.77734375 750 l 1
 456.77734375 610 l 1
 206.05078125 610 l 1
 200.083984375 518.35546875 l 1
 209.46875 519.428710938 218.999023438 520.000976562 228.65234375 520 c 2
 228.706054688 520 l 2
 367.58984375 519.985351562 481.77734375 405.765625 481.77734375 266.875 c 2
 481.77734375 233.125 l 2
 481.77734375 94.2451171875 367.608398438 -19.9765625 228.739257812 -20 c 2
 228.65234375 -20 l 2
 159.198242188 -20.01171875 95.91796875 8.5546875 50 54.47265625 c 1
 153.099609375 157.572265625 l 1
 171.7890625 135.012695312 198.513671875 119.987304688 228.65234375 120 c 2
 228.7265625 120 l 2
 286.534179688 120.0234375 331.77734375 175.306640625 331.77734375 233.125 c 2
 331.77734375 266.875 l 2
 331.77734375 324.697265625 286.52734375 379.98046875 228.71484375 380 c 2
 228.65234375 380 l 2
 218.711914062 380.00390625 209.147460938 378.357421875 200.115234375 375.359375 c 2
 50.083984375 375.359375 l 1
 70 750 l 1
EndSplineSet
EndChar

StartChar: six
Encoding: 54 54 13
Width: 505
Flags: HMW
LayerCount: 2
Fore
SplineSet
240.1796875 770.1953125 m 1
 372.7109375 711.328125 l 1
 272.462890625 501.7890625 l 1
 272.504882812 501.782226562 272.547851562 501.775390625 272.58984375 501.76953125 c 2
 272.724609375 501.75 l 2
 370.229492188 487.189453125 455 419.064453125 455 317.5 c 2
 455 182.5 l 2
 455 70.662109375 364.337890625 -20.044921875 252.5 -20 c 2
 252.333984375 -20 l 2
 140.572265625 -19.955078125 50 70.7177734375 50 182.5 c 2
 50 317.5 l 2
 50 349.76953125 57.5615234375 380.26953125 70.98828125 407.34375 c 2
 240.1796875 770.1953125 l 1
252.287109375 380 m 2
 223.375 379.8828125 200 346.412109375 200 317.5 c 2
 200 182.5 l 2
 200 153.587890625 223.375 120.1171875 252.287109375 120 c 2
 252.5 120 l 2
 281.495117188 120 305 153.504882812 305 182.5 c 2
 305 317.5 l 2
 305 346.495117188 281.495117188 380 252.5 380 c 2
 252.287109375 380 l 2
EndSplineSet
EndChar

StartChar: nine
Encoding: 57 57 14
Width: 505
Flags: HMW
LayerCount: 2
Fore
SplineSet
264.8203125 -20.1943359375 m 1
 132.2890625 38.6728515625 l 1
 232.537109375 248.211914062 l 1
 232.495117188 248.21875 232.452148438 248.225585938 232.41015625 248.231445312 c 2
 232.275390625 248.250976562 l 2
 134.770507812 262.811523438 50 330.936523438 50 432.500976562 c 2
 50 567.500976562 l 2
 50 679.338867188 140.662109375 770.000976562 252.5 770.000976562 c 2
 252.666015625 770.000976562 l 2
 364.428710938 770.000976562 455 679.283203125 455 567.500976562 c 2
 455 432.500976562 l 2
 455 400.231445312 447.438476562 369.731445312 434.01171875 342.657226562 c 2
 264.8203125 -20.1943359375 l 1
252.712890625 370.000976562 m 2
 281.625 370.118164062 305 403.588867188 305 432.500976562 c 2
 305 567.500976562 l 2
 305 596.413085938 281.625 629.883789062 252.712890625 630.000976562 c 2
 252.5 630.000976562 l 2
 223.504882812 630.000976562 200 596.49609375 200 567.500976562 c 2
 200 432.500976562 l 2
 200 403.505859375 223.504882812 370.000976562 252.5 370.000976562 c 2
 252.712890625 370.000976562 l 2
EndSplineSet
EndChar

StartChar: seven
Encoding: 55 55 15
Width: 455
Flags: HMW
LayerCount: 2
Fore
SplineSet
30 750.001953125 m 1
 425 750.001953125 l 1
 189.59765625 -19.96484375 l 1
 46.150390625 23.890625 l 1
 225.34375 610.001953125 l 1
 30 610.001953125 l 1
 30 750.001953125 l 1
EndSplineSet
EndChar

StartChar: eight
Encoding: 56 56 16
Width: 505
Flags: HMW
LayerCount: 2
Fore
SplineSet
252.5 770 m 2
 252.677734375 770 l 2
 364.43359375 769.952148438 455 679.278320312 455 567.5 c 2
 455 507.5 l 2
 455 456.833984375 426.391601562 410.513671875 395.63671875 375 c 1
 426.391601562 339.486328125 455 293.166015625 455 242.5 c 2
 455 182.5 l 2
 455 70.7353515625 364.456054688 -19.94140625 252.717773438 -20 c 2
 252.5 -20 l 2
 140.662109375 -20.05859375 50 70.662109375 50 182.5 c 2
 50 242.5 l 2
 50 293.166015625 78.6083984375 339.486328125 109.36328125 375 c 1
 78.6083984375 410.513671875 50 456.833984375 50 507.5 c 2
 50 567.5 l 2
 50 679.337890625 140.662109375 770.047851562 252.5 770 c 2
252.5 630 m 2
 223.504882812 630.03515625 200 596.495117188 200 567.5 c 2
 200 507.5 l 2
 200 478.504882812 223.504882812 444.956054688 252.5 445 c 2
 252.614257812 445 l 2
 281.556640625 445.043945312 305 478.54296875 305 507.5 c 2
 305 567.5 l 2
 305 596.46484375 281.544921875 629.96484375 252.591796875 630 c 2
 252.5 630 l 2
252.5 305 m 2
 223.504882812 305.05859375 200 271.495117188 200 242.5 c 2
 200 182.5 l 2
 200 153.504882812 223.504882812 119.938476562 252.5 120 c 2
 252.66015625 120 l 2
 281.58203125 120.061523438 305 153.55859375 305 182.5 c 2
 305 242.5 l 2
 305 271.444335938 281.577148438 304.94140625 252.65234375 305 c 2
 252.5 305 l 2
EndSplineSet
EndChar

StartChar: R
Encoding: 82 82 17
Width: 480
Flags: HMW
LayerCount: 2
Fore
SplineSet
50 750 m 5
 245 750 l 6
 352.6953125 750 440 662.6953125 440 555 c 6
 440 500 l 6
 440 430.986328125 404.147460938 370.34765625 350.052734375 335.689453125 c 5
 350.081054688 335.58203125 l 5
 440 0 l 5
 287.814453125 0 l 5
 206.08984375 305 l 5
 200 305 l 5
 200 0 l 5
 50 0 l 5
 50 750 l 5
200 610 m 5
 200 445 l 5
 245 445 l 6
 269.852539062 445 290 475.147460938 290 500 c 6
 290 555 l 6
 290 579.852539062 269.852539062 610 245 610 c 6
 200 610 l 5
EndSplineSet
EndChar

StartChar: o
Encoding: 111 111 18
Width: 505
Flags: HMW
LayerCount: 2
Fore
SplineSet
252.408203125 520 m 2
 252.5 520 l 2
 364.337890625 520.024414062 455 429.337890625 455 317.5 c 2
 455 182.5 l 2
 455 70.662109375 364.337890625 -20.0537109375 252.5 -20 c 2
 252.299804688 -20 l 2
 140.553710938 -19.9462890625 50 70.7294921875 50 182.5 c 2
 50 317.5 l 2
 50 429.307617188 140.61328125 519.975585938 252.408203125 520 c 2
252.287109375 380 m 2
 223.375 379.8828125 200 346.412109375 200 317.5 c 2
 200 182.5 l 2
 200 153.587890625 223.375 120.1171875 252.287109375 120 c 2
 252.5 120 l 2
 281.495117188 120 305 153.504882812 305 182.5 c 2
 305 317.5 l 2
 305 346.495117188 281.495117188 380 252.5 380 c 2
 252.287109375 380 l 2
EndSplineSet
EndChar

StartChar: l
Encoding: 108 108 19
Width: 250
Flags: HMW
LayerCount: 2
Fore
SplineSet
50 750 m 5
 200 750 l 5
 200 140.087890625 l 5
 200 139.973632812 l 5
 200 0 l 5
 50 0 l 5
 50 140 l 5
 50 140.094726562 l 5
 50 609.779296875 l 5
 50 609.994140625 l 5
 50 750 l 5
EndSplineSet
EndChar

StartChar: a
Encoding: 97 97 20
Width: 505
Flags: HMW
LayerCount: 2
Fore
SplineSet
252.408203125 520 m 2
 252.5 520 l 2
 295.266601562 520 326.942382812 500 340.37890625 490 c 1
 340.479492188 500 l 1
 455 500 l 1
 455 0 l 1
 340.530273438 0 l 1
 340.40234375 10 l 1
 330.23046875 0 293.880859375 -20 252.5 -20 c 2
 252.30078125 -20 l 2
 140.5546875 -19.9462890625 50 70.7294921875 50 182.5 c 2
 50 317.5 l 2
 50 429.307617188 140.612304688 519.975585938 252.408203125 520 c 2
252.287109375 380 m 2
 223.375 379.8828125 200 346.412109375 200 317.5 c 2
 200 182.5 l 2
 200 153.587890625 223.375 120.1171875 252.287109375 120 c 2
 252.5 120 l 2
 281.495117188 120 305 153.504882812 305 182.5 c 2
 305 317.5 l 2
 305 346.495117188 281.495117188 380 252.5 380 c 2
 252.287109375 380 l 2
EndSplineSet
EndChar

StartChar: n
Encoding: 110 110 21
Width: 505
Flags: HMW
LayerCount: 2
Fore
SplineSet
252.5 520 m 2
 252.591796875 520 l 2
 364.387695312 519.975585938 455 429.307617188 455 317.5 c 2
 455 0 l 1
 305 0 l 1
 305 317.5 l 2
 305 346.412109375 281.625 379.8828125 252.712890625 380 c 2
 252.5 380 l 2
 223.504882812 380 200 346.495117188 200 317.5 c 2
 200 0.021484375 l 1
 50 0 l 1
 50 500 l 1
 164.521484375 500 l 1
 164.62109375 490 l 1
 178.057617188 500 209.733398438 520 252.5 520 c 2
EndSplineSet
EndChar

StartChar: r
Encoding: 114 114 22
Width: 349
Flags: HMW
LayerCount: 2
Fore
SplineSet
50 500 m 1
 200 500 l 1
 200 481.86328125 l 1
 217.34375 499.984375 258.594726562 519.912109375 319.759765625 519.9375 c 2
 319.841796875 519.9375 l 2
 319.8671875 519.9375 319.892578125 519.9375 319.91796875 519.9375 c 2
 319.91796875 379.9375 l 1
 319.901367188 379.9375 319.883789062 379.9375 319.8671875 379.9375 c 2
 319.791992188 379.9375 l 2
 253.633789062 379.913085938 200.000976562 316.182617188 200 250 c 2
 200 0 l 1
 50 0 l 1
 50 500 l 1
EndSplineSet
EndChar

StartChar: d
Encoding: 100 100 23
Width: 505
Flags: HMW
LayerCount: 2
Fore
SplineSet
252.408203125 520 m 2
 252.5 520 l 2
 290.4765625 520 302.340820312 507.461914062 304.950195312 504 c 1
 305.049804688 750 l 1
 455 750 l 1
 455 0 l 1
 340.530273438 0 l 1
 340.40234375 10 l 1
 330.23046875 0 293.880859375 -20 252.5 -20 c 2
 252.30078125 -20 l 2
 140.5546875 -19.9462890625 50 70.7294921875 50 182.5 c 2
 50 317.5 l 2
 50 429.307617188 140.612304688 519.975585938 252.408203125 520 c 2
252.287109375 380 m 2
 223.375 379.8828125 200 346.412109375 200 317.5 c 2
 200 182.5 l 2
 200 153.587890625 223.375 120.1171875 252.287109375 120 c 2
 252.5 120 l 2
 281.495117188 120 305 153.504882812 305 182.5 c 2
 305 317.5 l 2
 305 346.495117188 281.495117188 380 252.5 380 c 2
 252.287109375 380 l 2
EndSplineSet
EndChar

StartChar: B
Encoding: 66 66 24
Width: 490
Flags: HMW
LayerCount: 2
Fore
SplineSet
50 750 m 5
 245 750 l 6
 352.6953125 750 440 662.6953125 440 555 c 6
 440 500 l 6
 440 452.431640625 412.962890625 408.845703125 384.6640625 375 c 5
 412.962890625 341.154296875 440 297.568359375 440 250 c 6
 440 195 l 6
 440 87.3046875 352.6953125 0 245 0 c 6
 50 0 l 5
 50 750 l 5
200 610 m 5
 200 445 l 5
 245 445 l 6
 269.852539062 445 290 475.147460938 290 500 c 6
 290 555 l 6
 290 579.852539062 269.852539062 610 245 610 c 6
 200 610 l 5
200 305 m 5
 200 140 l 5
 245 140 l 6
 269.852539062 140 290 170.147460938 290 195 c 6
 290 250 l 6
 290 274.852539062 269.852539062 305 245 305 c 6
 200 305 l 5
EndSplineSet
EndChar

StartChar: b
Encoding: 98 98 25
Width: 505
Flags: HMW
LayerCount: 2
Fore
SplineSet
252.591796875 519.998046875 m 2
 364.387695312 519.973632812 455 429.305664062 455 317.498046875 c 2
 455 182.498046875 l 2
 455 70.7275390625 364.4453125 -19.9482421875 252.69921875 -20.001953125 c 2
 252.5 -20.001953125 l 2
 211.119140625 -20.001953125 174.76953125 -0.001953125 164.59765625 9.998046875 c 1
 164.469726562 -0.001953125 l 1
 50 -0.001953125 l 1
 50 749.998046875 l 1
 199.950195312 749.998046875 l 1
 200.049804688 503.998046875 l 1
 202.659179688 507.459960938 214.5234375 519.998046875 252.5 519.998046875 c 2
 252.591796875 519.998046875 l 2
252.712890625 379.998046875 m 2
 252.5 379.998046875 l 2
 223.504882812 379.998046875 200 346.493164062 200 317.498046875 c 2
 200 182.498046875 l 2
 200 153.502929688 223.504882812 119.998046875 252.5 119.998046875 c 2
 252.712890625 119.998046875 l 2
 281.625 120.115234375 305 153.5859375 305 182.498046875 c 2
 305 317.498046875 l 2
 305 346.41015625 281.625 379.880859375 252.712890625 379.998046875 c 2
EndSplineSet
EndChar

StartChar: c
Encoding: 99 99 26
Width: 425
Flags: HMW
LayerCount: 2
Fore
SplineSet
252.408203125 520 m 6
 252.5 520 l 6
 308.43359375 520.012695312 359.067382812 497.334960938 395.71484375 460.669921875 c 5
 291.77734375 356.732421875 l 5
 282.16015625 370.25390625 268.130859375 380 252.498046875 380 c 6
 252.28515625 380 l 6
 223.373046875 379.8828125 199.998046875 346.412109375 199.998046875 317.5 c 6
 199.998046875 182.5 l 6
 199.998046875 153.587890625 223.373046875 120.1171875 252.28515625 120 c 6
 252.498046875 120 l 6
 268.143554688 120 282.180664062 129.762695312 291.798828125 143.30078125 c 5
 395.73828125 39.361328125 l 5
 359.091796875 2.6708984375 308.450195312 -20.02734375 252.5 -20 c 6
 252.298828125 -20 l 6
 140.552734375 -19.9462890625 50 70.7294921875 50 182.5 c 6
 50 317.5 l 6
 50 429.307617188 140.612304688 519.975585938 252.408203125 520 c 6
EndSplineSet
EndChar

StartChar: f
Encoding: 102 102 27
Width: 285
Flags: HMW
LayerCount: 2
Fore
SplineSet
205 770 m 2
 256 770 l 1
 256 630 l 1
 205 630 l 1
 205 626.666992188 205 623.333007812 205 620 c 2
 205 500 l 1
 256 500 l 1
 256 360 l 1
 205 360 l 1
 205 0 l 1
 55 0 l 1
 55 360 l 1
 29 360 l 1
 29 500 l 1
 55 500 l 1
 55 620 l 2
 55 702.842773438 122.157226562 770 205 770 c 2
EndSplineSet
EndChar

StartChar: g
Encoding: 103 103 28
Width: 505
Flags: HMW
LayerCount: 2
Fore
SplineSet
252.30078125 520 m 2
 252.5 520 l 2
 293.880859375 520 330.23046875 500 340.40234375 490 c 1
 340.53125 500 l 1
 455 500 l 1
 455 -50 l 2
 455 -132.842773438 387.868164062 -200 305.025390625 -200 c 2
 212.5 -200 l 2
 129.657226562 -200 62.5 -132.842773438 62.5 -50 c 1
 212.5 -50 l 1
 212.5 -53.3330078125 212.375 -56.9326171875 212.5 -60 c 2
 305.025390625 -60 l 1
 305.025390625 -56.6669921875 305.001953125 -53.3330078125 305.05078125 -50 c 2
 304.94921875 -4 l 1
 302.340820312 -7.4619140625 290.4765625 -20 252.5 -20 c 2
 252.408203125 -20 l 2
 140.612304688 -19.9755859375 50 70.6923828125 50 182.5 c 2
 50 317.5 l 2
 50 429.270507812 140.5546875 519.946289062 252.30078125 520 c 2
252.287109375 380 m 2
 223.375 379.8828125 200 346.412109375 200 317.5 c 2
 200 182.5 l 2
 200 153.587890625 223.375 120.1171875 252.287109375 120 c 2
 252.5 120 l 2
 281.495117188 120 305 153.504882812 305 182.5 c 2
 305 317.5 l 2
 305 346.495117188 281.495117188 380 252.5 380 c 2
 252.287109375 380 l 2
EndSplineSet
EndChar

StartChar: h
Encoding: 104 104 29
Width: 505
Flags: HMW
LayerCount: 2
Fore
SplineSet
252.5 520 m 2
 252.591796875 520 l 2
 364.387695312 519.975585938 455 429.307617188 455 317.5 c 2
 455 0 l 1
 305 0 l 1
 305 317.5 l 2
 305 346.412109375 281.625 379.8828125 252.712890625 380 c 2
 252.5 380 l 2
 223.504882812 380 200 346.495117188 200 317.5 c 2
 200 0.021484375 l 1
 50 0 l 1
 50 750 l 1
 200.021484375 750 l 1
 200.12109375 504 l 1
 205.905273438 510.5390625 228.16015625 520 252.5 520 c 2
EndSplineSet
EndChar

StartChar: i
Encoding: 105 105 30
Width: 300
Flags: HMW
LayerCount: 2
Fore
SplineSet
75 500 m 5
 225 500 l 5
 225 140.047851562 l 5
 225 139.995117188 l 5
 225 0 l 5
 75 0 l 5
 75 140 l 5
 75 140.1015625 l 5
 75 358.420898438 l 5
 75 359.9921875 l 5
 75 500 l 5
250 670 m 0
 250 725.19140625 205.19140625 770 150 770 c 0
 94.80859375 770 50 725.19140625 50 670 c 0
 50 614.80859375 94.80859375 570 150 570 c 0
 205.19140625 570 250 614.80859375 250 670 c 0
EndSplineSet
EndChar

StartChar: j
Encoding: 106 106 31
Width: 325
Flags: HMW
LayerCount: 2
Fore
SplineSet
100 500 m 1
 250 500 l 1
 250 -50 l 2
 250 -132.842773438 182.842773438 -200 100 -200 c 2
 50 -200 l 1
 50 -60 l 1
 99.609375 -60.0810546875 l 2
 99.9248046875 -56.9189453125 100 -53.3330078125 100 -50 c 2
 100 358.421875 l 1
 100 359.9921875 l 1
 100 500 l 1
275 670 m 0
 275 725.19140625 230.19140625 770 175 770 c 0
 119.80859375 770 75 725.19140625 75 670 c 0
 75 614.80859375 119.80859375 570 175 570 c 0
 230.19140625 570 275 614.80859375 275 670 c 0
EndSplineSet
EndChar

StartChar: k
Encoding: 107 107 32
Width: 455
Flags: HMW
LayerCount: 2
Fore
SplineSet
50 750 m 1
 200 750 l 1
 200 403.91015625 l 1
 256.66796875 500 l 1
 425 500 l 1
 290.513671875 271.958984375 l 1
 425 0 l 1
 263.283203125 0 l 1
 202.552734375 122.80859375 l 1
 200 118.48046875 l 1
 200 0 l 1
 50 0 l 1
 50 750 l 1
EndSplineSet
EndChar

StartChar: m
Encoding: 109 109 33
Width: 760
Flags: HMW
LayerCount: 2
Fore
SplineSet
252.5 520 m 2
 252.591796875 520 l 2
 300.881835938 519.989257812 344 506.333312988 380 464.822265625 c 1
 414.790039062 493.055664062 459.118164062 519.989257812 507.408203125 520 c 2
 507.591796875 520 l 2
 619.387695312 519.975585938 710 429.307617188 710 317.5 c 2
 710 0 l 1
 560 0 l 1
 560 317.5 l 2
 560 346.412109375 536.625 379.8828125 507.712890625 380 c 2
 507.287109375 380 l 2
 478.375 379.8828125 455 346.412109375 455 317.5 c 2
 455 0 l 1
 305 0 l 1
 305 317.5 l 2
 305 346.412109375 281.625 379.8828125 252.712890625 380 c 2
 252.5 380 l 2
 223.504882812 380 200 346.495117188 200 317.5 c 2
 200 0.021484375 l 1
 50 0 l 1
 50 500 l 1
 164.521484375 500 l 1
 164.62109375 490 l 1
 178.057617188 500 209.733398438 520 252.5 520 c 2
EndSplineSet
EndChar

StartChar: p
Encoding: 112 112 34
Width: 505
Flags: HMW
LayerCount: 2
Fore
SplineSet
252.591796875 -20 m 2
 252.5 -20 l 2
 214.5234375 -20 202.659179688 -7.4619140625 200.049804688 -4 c 1
 199.950195312 -200 l 1
 50 -200 l 1
 50 500 l 1
 164.469726562 500 l 1
 164.59765625 490 l 1
 174.76953125 500 211.119140625 520 252.5 520 c 2
 252.69921875 520 l 2
 364.4453125 519.946289062 455 429.270507812 455 317.5 c 2
 455 182.5 l 2
 455 70.6923828125 364.387695312 -19.9755859375 252.591796875 -20 c 2
252.712890625 120 m 2
 281.625 120.1171875 305 153.587890625 305 182.5 c 2
 305 317.5 l 2
 305 346.412109375 281.625 379.8828125 252.712890625 380 c 2
 252.5 380 l 2
 223.504882812 380 200 346.495117188 200 317.5 c 2
 200 182.5 l 2
 200 153.504882812 223.504882812 120 252.5 120 c 2
 252.712890625 120 l 2
EndSplineSet
EndChar

StartChar: q
Encoding: 113 113 35
Width: 505
Flags: HMW
LayerCount: 2
Fore
SplineSet
252.408203125 -20 m 6
 140.612304688 -19.9755859375 50 70.6923828125 50 182.5 c 6
 50 317.5 l 6
 50 429.270507812 140.5546875 519.946289062 252.30078125 520 c 6
 252.5 520 l 6
 293.880859375 520 330.23046875 500 340.40234375 490 c 5
 340.530273438 500 l 5
 455 500 l 5
 455 -200 l 5
 305.049804688 -200 l 5
 304.950195312 -4 l 5
 302.340820312 -7.4619140625 290.4765625 -20 252.5 -20 c 6
 252.408203125 -20 l 6
252.287109375 120 m 6
 252.5 120 l 6
 281.495117188 120 305 153.504882812 305 182.5 c 6
 305 317.5 l 6
 305 346.495117188 281.495117188 380 252.5 380 c 6
 252.287109375 380 l 6
 223.375 379.8828125 200 346.412109375 200 317.5 c 6
 200 182.5 l 6
 200 153.587890625 223.375 120.1171875 252.287109375 120 c 6
EndSplineSet
EndChar

StartChar: s
Encoding: 115 115 36
Width: 400
Flags: HMW
LayerCount: 2
Fore
SplineSet
200 520 m 6
 200.069335938 520 l 6
 284.75390625 520 355 449.692382812 355 365 c 5
 205 365 l 5
 205 368.620117188 203.67578125 380 200.087890625 380 c 6
 200 380 l 6
 196.350585938 380 195 368.649414062 195 365 c 6
 195 335 l 6
 195 331.350585938 196.350585938 320 200 320 c 6
 200.0703125 320 l 6
 284.754882812 320 355 249.692382812 355 165 c 6
 355 135 l 6
 355 50.3134765625 284.763671875 -20 200.086914062 -20 c 6
 200 -20 l 6
 115.284179688 -20 45 50.2841796875 45 135 c 5
 195 135 l 5
 195 131.350585938 196.350585938 120 200 120 c 6
 200.059570312 120 l 6
 203.666015625 120 205 131.370117188 205 135 c 6
 205 165 l 6
 205 168.626953125 203.668945312 180 200.067382812 180 c 6
 200 180 l 6
 115.284179688 180 45 250.284179688 45 335 c 6
 45 365 l 6
 45 449.715820312 115.284179688 520 200 520 c 6
EndSplineSet
EndChar

StartChar: t
Encoding: 116 116 37
Width: 310
Flags: HMW
LayerCount: 2
Fore
SplineSet
80 750 m 5
 230 750 l 5
 230 500 l 5
 280 500 l 5
 280 360 l 5
 230 360 l 5
 230 0 l 5
 80 0 l 5
 80 360 l 5
 30 360 l 5
 30 500 l 5
 80 500 l 5
 80 750 l 5
EndSplineSet
EndChar

StartChar: u
Encoding: 117 117 38
Width: 505
Flags: HMW
LayerCount: 2
Fore
SplineSet
50 500 m 5
 200 500 l 5
 200 182.5 l 6
 200 153.504882812 223.504882812 119.950195312 252.5 120 c 6
 252.629882812 120 l 6
 281.565429688 120.049804688 305 153.548828125 305 182.5 c 6
 305 500 l 5
 455 500 l 5
 455 182.5 l 6
 455 70.73828125 364.459960938 -19.9384765625 252.7265625 -20 c 6
 252.5 -20 l 6
 140.662109375 -20.0615234375 50 70.662109375 50 182.5 c 6
 50 500 l 5
EndSplineSet
EndChar

StartChar: v
Encoding: 118 118 39
Width: 590
Flags: HMW
LayerCount: 2
Fore
SplineSet
30 500 m 5
 185.93359375 500 l 5
 295.466796875 223.1015625 l 5
 405 500 l 5
 560.93359375 500 l 5
 362.884765625 0 l 5
 228.048828125 0 l 5
 30 500 l 5
EndSplineSet
EndChar

StartChar: w
Encoding: 119 119 40
Width: 935
Flags: HMW
LayerCount: 2
Fore
SplineSet
30 500 m 5
 185.93359375 500 l 5
 295.466796875 223.1015625 l 5
 405 500 l 5
 530 500 l 5
 639.533203125 223.1015625 l 5
 749.06640625 500 l 5
 905 500 l 5
 706.951171875 0 l 5
 572.115234375 0 l 5
 467.5 264.115234375 l 5
 362.884765625 0 l 5
 228.048828125 0 l 5
 30 500 l 5
EndSplineSet
EndChar

StartChar: x
Encoding: 120 120 41
Width: 472
Flags: HMW
LayerCount: 2
Fore
SplineSet
30 500 m 5
 192.1171875 500 l 5
 236.05859375 412.115234375 l 5
 280 500 l 5
 442.1171875 500 l 5
 317.1171875 250 l 5
 442.1171875 0 l 5
 280 0 l 5
 236.05859375 87.884765625 l 5
 192.1171875 0 l 5
 30 0 l 5
 155 250 l 5
 30 500 l 5
EndSplineSet
EndChar

StartChar: y
Encoding: 121 121 42
Width: 603
Flags: HMW
LayerCount: 2
Fore
SplineSet
30 500 m 1
 184.861328125 500 l 1
 277.806640625 214.814453125 l 1
 412.830078125 500 l 1
 573.2578125 500 l 1
 241.837890625 -200 l 1
 81.408203125 -200 l 1
 191.388671875 32.291015625 l 1
 30 500 l 1
EndSplineSet
EndChar

StartChar: z
Encoding: 122 122 43
Width: 467
Flags: HMW
LayerCount: 2
Fore
SplineSet
44.880859375 500 m 1
 432.76171875 500 l 1
 260.763671875 142 l 1
 420.880859375 142 l 1
 420.880859375 0 l 1
 35 0 l 1
 207 358 l 1
 44.880859375 358 l 1
 44.880859375 500 l 1
EndSplineSet
EndChar

StartChar: O
Encoding: 79 79 44
Width: 682
Flags: HMW
LayerCount: 2
Fore
SplineSet
341.25 770 m 2
 341.57421875 770 l 2
 504.153320312 769.911132812 637.5 636.368164062 637.5 473.75 c 2
 637.5 276.25 l 2
 637.5 113.560546875 504.03515625 -19.970703125 341.358398438 -20 c 2
 341.25 -20 l 2
 178.524414062 -20.029296875 45 113.524414062 45 276.25 c 2
 45 473.75 l 2
 45 636.475585938 178.524414062 770.088867188 341.25 770 c 2
341.25 630 m 2
 259.58984375 630.05859375 195 555.41015625 195 473.75 c 2
 195 276.25 l 2
 195 194.58984375 258.58984375 119.961914062 340.25 120 c 2
 341.375 120 l 2
 422.975585938 120.038085938 487.5 194.631835938 487.5 276.25 c 2
 487.5 473.75 l 2
 487.5 555.345703125 423.012695312 629.940429688 341.443359375 630 c 2
 341.25 630 l 2
EndSplineSet
EndChar

StartChar: C
Encoding: 67 67 45
Width: 585
Flags: HMW
LayerCount: 2
Fore
SplineSet
346.25 770 m 2
 346.57421875 770 l 2
 427.62890625 769.956054688 501.412109375 736.735351562 555.033203125 683.283203125 c 1
 452.01171875 580.26171875 l 1
 425.5625 610.356445312 388.248046875 629.969726562 346.443359375 630 c 2
 346.25 630 l 2
 264.58984375 630.05859375 200 555.41015625 200 473.75 c 2
 200 276.25 l 2
 200 194.58984375 264.58984375 119.961914062 346.25 120 c 2
 346.375 120 l 2
 386.48046875 120.018554688 422.453125 138.053710938 448.67578125 166.07421875 c 1
 551.478515625 63.271484375 l 1
 498.127929688 11.8173828125 425.725585938 -19.9853515625 346.357421875 -20 c 2
 345.25 -20 l 2
 182.524414062 -20.029296875 50 113.524414062 50 276.25 c 2
 50 473.75 l 2
 50 636.475585938 183.524414062 770.088867188 346.25 770 c 2
EndSplineSet
EndChar

StartChar: D
Encoding: 68 68 46
Width: 568
Flags: HMW
LayerCount: 2
Fore
SplineSet
50 750 m 1
 239.5 750 l 2
 393.94140625 750 518.75 623.19140625 518.75 468.75 c 2
 518.75 281.25 l 2
 518.75 126.80859375 393.94140625 0 239.5 0 c 2
 50 0 l 1
 50 750 l 1
200 610 m 1
 200 140 l 1
 239.5 140 l 2
 312.875976562 140 368.75 207.874023438 368.75 281.25 c 2
 368.75 468.75 l 2
 368.75 542.125976562 312.875976562 610 239.5 610 c 2
 200 610 l 1
EndSplineSet
EndChar

StartChar: E
Encoding: 69 69 47
Width: 465
Flags: HMW
LayerCount: 2
Fore
SplineSet
50 750 m 1
 425 750 l 1
 425 610 l 1
 200 610 l 1
 200 445 l 1
 425 445 l 1
 425 305 l 1
 200 305 l 1
 200 140 l 1
 425 140 l 1
 425 0 l 1
 50 0 l 1
 50 750 l 1
EndSplineSet
EndChar

StartChar: F
Encoding: 70 70 48
Width: 465
Flags: HMW
LayerCount: 2
Fore
SplineSet
50 750 m 5
 425 750 l 5
 425 610 l 5
 200 610 l 5
 200 445 l 5
 425 445 l 5
 425 305 l 5
 200 305 l 5
 200 0 l 5
 50 0 l 5
 50 750 l 5
EndSplineSet
EndChar

StartChar: A
Encoding: 65 65 49
Width: 582
Flags: HMW
LayerCount: 2
Fore
SplineSet
222.048828125 750 m 1
 360.576171875 750 l 1
 552.625 0 l 1
 405.00390625 0 l 1
 362.8984375 170 l 1
 219.7265625 170 l 1
 177.62109375 0 l 1
 30 0 l 1
 222.048828125 750 l 1
291.3125 443.8515625 m 1
 255.587890625 310 l 1
 327.037109375 310 l 1
 291.3125 443.8515625 l 1
EndSplineSet
EndChar

StartChar: H
Encoding: 72 72 50
Width: 550
Flags: HMW
LayerCount: 2
Fore
SplineSet
50 750 m 5
 200 750 l 5
 200 445 l 5
 350 445 l 5
 350 750 l 5
 500 750 l 5
 500 0 l 5
 350 0 l 5
 350 305 l 5
 200 305 l 5
 200 0 l 5
 50 0 l 5
 50 750 l 5
EndSplineSet
EndChar

StartChar: I
Encoding: 73 73 51
Width: 250
Flags: HMW
LayerCount: 2
Fore
SplineSet
50 750 m 5
 200 750 l 5
 200 609.985351562 l 5
 200 609.829101562 l 5
 200 140.1171875 l 5
 200 139.993164062 l 5
 200 0 l 5
 50 0 l 5
 50 139.985351562 l 5
 50 140.076171875 l 5
 50 609.853515625 l 5
 50 610 l 5
 50 750 l 5
EndSplineSet
EndChar

StartChar: G
Encoding: 71 71 52
Width: 692
Flags: HMW
LayerCount: 2
Fore
SplineSet
346.25 770 m 2
 361.25 770 l 2
 442.612304688 770 516.674804688 736.6171875 570.396484375 682.896484375 c 1
 467.35546875 579.85546875 l 1
 440.845703125 610.208007812 403.3125 630 361.25 630 c 2
 346.25 630 l 2
 264.58984375 630 200 555.41015625 200 473.75 c 2
 200 276.25 l 2
 200 194.58984375 264.58984375 119.950195312 346.25 120 c 2
 346.4140625 120 l 2
 427.99609375 120.049804688 492.5 194.64453125 492.5 276.25 c 2
 492.5 285 l 1
 346.25 285 l 1
 346.25 425 l 1
 642.5 425 l 1
 642.5 276.25 l 2
 642.5 113.588867188 509.08203125 -19.947265625 346.443359375 -20 c 2
 346.25 -20 l 2
 183.524414062 -20.052734375 50 113.524414062 50 276.25 c 2
 50 473.75 l 2
 50 636.475585938 183.524414062 770 346.25 770 c 2
EndSplineSet
EndChar

StartChar: L
Encoding: 76 76 53
Width: 455
Flags: HMW
LayerCount: 2
Fore
SplineSet
50 750 m 5
 200 750 l 5
 200 140 l 5
 425 140 l 5
 425 0 l 5
 50 0 l 5
 50 750 l 5
EndSplineSet
EndChar

StartChar: T
Encoding: 84 84 54
Width: 472
Flags: HMW
LayerCount: 2
Fore
SplineSet
30 750 m 5
 442.5 750 l 5
 442.5 610 l 5
 311.25 610 l 5
 311.25 0 l 5
 161.25 0 l 5
 161.25 610 l 5
 30 610 l 5
 30 750 l 5
EndSplineSet
EndChar

StartChar: Y
Encoding: 89 89 55
Width: 622
Flags: HMW
LayerCount: 2
Fore
SplineSet
30 750 m 5
 195.193359375 750 l 5
 311.10546875 531.03125 l 5
 427.017578125 750 l 5
 592.2109375 750 l 5
 386.10546875 360.650390625 l 5
 386.10546875 0 l 5
 236.10546875 0 l 5
 236.10546875 360.650390625 l 5
 30 750 l 5
EndSplineSet
EndChar

StartChar: P
Encoding: 80 80 56
Width: 490
Flags: HMW
LayerCount: 2
Fore
SplineSet
50 750 m 5
 245 750 l 6
 352.6953125 750 440 662.6953125 440 555 c 6
 440 500 l 6
 440 392.3046875 352.6953125 305 245 305 c 6
 200 305 l 5
 200 0 l 5
 50 0 l 5
 50 750 l 5
200 610 m 5
 200 445 l 5
 245 445 l 6
 269.852539062 445 290 475.147460938 290 500 c 6
 290 555 l 6
 290 579.852539062 269.852539062 610 245 610 c 6
 200 610 l 5
EndSplineSet
EndChar

StartChar: Z
Encoding: 90 90 57
Width: 490
Flags: HMW
LayerCount: 2
Fore
SplineSet
55 750 m 5
 460.759765625 750 l 5
 243.7578125 150 l 5
 434.87890625 150 l 5
 434.87890625 0 l 5
 30 0 l 5
 247 600 l 5
 55 600 l 5
 55 750 l 5
EndSplineSet
EndChar

StartChar: J
Encoding: 74 74 58
Width: 336
Flags: HMW
LayerCount: 2
Fore
SplineSet
136.06640625 750 m 5
 286.06640625 750 l 5
 286.06640625 130 l 6
 286.06640625 47.177734375 218.942382812 -19.9833984375 136.126953125 -20 c 6
 136.06640625 -20 l 6
 96.2841796875 -20 58.130859375 -4.197265625 30 23.93359375 c 5
 129.76953125 133.703125 l 5
 131.22265625 132.325195312 133.06640625 129.918945312 134.546875 129.963867188 c 6
 134.609375 129.965820312 l 6
 136.028320312 130.008789062 136.075195312 130.997070312 136.06640625 131.51171875 c 6
 136.06640625 750 l 5
EndSplineSet
EndChar

StartChar: K
Encoding: 75 75 59
Width: 501
Flags: HMW
LayerCount: 2
Fore
SplineSet
50 750 m 5
 200 750 l 5
 200 530.748046875 l 5
 308.986328125 750 l 5
 471.875 750 l 5
 288.9765625 375.001953125 l 5
 471.876953125 0 l 5
 308.986328125 0 l 5
 207.53125 205.9140625 l 5
 200 192.57421875 l 5
 200 0 l 5
 50 0 l 5
 50 750 l 5
EndSplineSet
EndChar

StartChar: V
Encoding: 86 86 60
Width: 586
Flags: HMW
LayerCount: 2
Fore
SplineSet
30 750 m 5
 181.74609375 750 l 5
 293.373046875 314.20703125 l 5
 405 750 l 5
 556.74609375 750 l 5
 364.57421875 0 l 5
 222.171875 0 l 5
 30 750 l 5
EndSplineSet
EndChar

StartChar: W
Encoding: 87 87 61
Width: 953
Flags: HMW
LayerCount: 2
Fore
SplineSet
30 750 m 5
 181.74609375 750 l 5
 293.373046875 314.20703125 l 5
 405 750 l 5
 548.4765625 750 l 5
 660.103515625 314.20703125 l 5
 771.73046875 750 l 5
 923.4765625 750 l 5
 731.3046875 0 l 5
 588.90234375 0 l 5
 476.73828125 437.748046875 l 5
 364.57421875 0 l 5
 222.171875 0 l 5
 30 750 l 5
EndSplineSet
EndChar

StartChar: M
Encoding: 77 77 62
Width: 812
Flags: HMW
LayerCount: 2
Fore
SplineSet
50 750 m 1
 205.48828125 750 l 1
 401.25 234.625 l 5
 597.01171875 750 l 1
 752.5 750 l 1
 752.5 0 l 1
 602.5 0 l 1
 602.5 350.841796875 l 1
 471.134765625 0 l 5
 331.365234375 0 l 5
 200 350.841796875 l 1
 200 0 l 1
 50 0 l 1
 50 750 l 1
EndSplineSet
EndChar

StartChar: N
Encoding: 78 78 63
Width: 625
Flags: HMW
LayerCount: 2
Fore
SplineSet
50 750 m 5
 208.8515625 750 l 5
 425 317.705078125 l 5
 425 750 l 5
 575 750 l 5
 575 0 l 5
 416.1484375 0 l 5
 200 432.294921875 l 5
 200 0 l 5
 50 0 l 5
 50 750 l 5
EndSplineSet
EndChar

StartChar: U
Encoding: 85 85 64
Width: 565
Flags: HMW
LayerCount: 2
Fore
SplineSet
50 750 m 5
 200 750 l 5
 200 212.5 l 6
 200 166.047851562 236.047851562 119.94921875 282.5 120 c 6
 282.655273438 120 l 6
 329.032226562 120.051757812 365 166.099609375 365 212.5 c 6
 365 750 l 5
 515 750 l 5
 515 212.5 l 6
 515 85.0341796875 410.103515625 -19.95703125 282.65625 -20 c 6
 282.5 -20 l 6
 154.982421875 -20.04296875 50 84.982421875 50 212.5 c 6
 50 750 l 5
EndSplineSet
EndChar

StartChar: S
Encoding: 83 83 65
Width: 467
Flags: HMW
LayerCount: 2
Fore
SplineSet
233.75 770 m 2
 233.892578125 770 l 2
 334.422851562 770 417.5 686.796875 417.5 586.25 c 1
 267.5 586.25 l 1
 267.5 605.743164062 253.328125 630 233.853515625 630 c 2
 233.75 630 l 2
 214.221679688 630 200 605.778320312 200 586.25 c 0
 200.142578125 488.75 l 0
 200.142578125 469.26953125 214.4375 445.034179688 233.892578125 445.001953125 c 2
 233.961914062 445.001953125 l 2
 334.4609375 445.07421875 417.5 361.775390625 417.5 261.251953125 c 2
 417.5 163.75 l 2
 417.5 63.2177734375 334.446289062 -20 233.935546875 -20 c 2
 233.75 -20 l 2
 133.15625 -20 50 63.15625 50 163.75 c 1
 200 163.75 l 1
 200 144.221679688 214.221679688 120 233.75 120 c 2
 233.861328125 120 l 2
 253.33203125 120 267.5 144.259765625 267.5 163.75 c 2
 267.5 261.251953125 l 2
 267.5 280.696289062 253.399414062 305 233.999023438 305 c 2
 233.892578125 305 l 2
 133.362304688 305 50.142578125 388.203125 50.142578125 488.75 c 0
 50 586.25 l 0
 50 686.84375 133.15625 770 233.75 770 c 2
EndSplineSet
EndChar

StartChar: dollar
Encoding: 36 36 66
Width: 457
Flags: HMW
LayerCount: 2
Fore
SplineSet
178.892578125 800 m 1
 278.892578125 800 l 1
 278.892578125 762.947265625 l 1
 279.0234375 762.91015625 l 2
 355.62109375 740.806640625 412.5 669.451171875 412.5 586.25 c 1
 262.5 586.25 l 1
 262.5 601.208984375 254.181640625 619.036132812 241.471679688 626.426757812 c 2
 241.392578125 626.47265625 l 1
 241.392578125 444.56640625 l 1
 241.5078125 444.55859375 l 2
 336.280273438 438.104492188 412.5 357.55859375 412.5 261.251953125 c 2
 412.5 163.75 l 2
 412.5 80.5380859375 355.603515625 9.1669921875 278.9921875 -12.92578125 c 2
 278.892578125 -12.955078125 l 1
 278.892578125 -50 l 1
 178.892578125 -50 l 1
 178.892578125 -13.001953125 l 1
 178.794921875 -12.974609375 l 2
 102.0390625 9.056640625 45 80.43359375 45 163.75 c 1
 195 163.75 l 1
 195 148.69140625 203.432617188 130.787109375 216.284179688 123.463867188 c 2
 216.392578125 123.40234375 l 1
 216.392578125 305.44921875 l 1
 216.3046875 305.455078125 l 2
 121.51953125 312.001953125 45.283203125 392.434570312 45.142578125 488.75 c 2
 45 586.25 l 2
 45 669.571289062 102.043945312 740.946289062 178.8046875 762.9765625 c 2
 178.892578125 763.001953125 l 1
 178.892578125 800 l 1
216.392578125 626.59375 m 1
 216.30078125 626.541992188 l 2
 203.447265625 619.209960938 195 601.314453125 195 586.25 c 2
 195.142578125 488.75 l 2
 195.142578125 473.774414062 203.580078125 455.967773438 216.340820312 448.561523438 c 2
 216.392578125 448.53125 l 1
 216.392578125 626.59375 l 1
241.392578125 301.515625 m 1
 241.392578125 123.537109375 l 1
 241.485351562 123.590820312 l 2
 254.17578125 131.010742188 262.5 148.798828125 262.5 163.75 c 2
 262.5 261.251953125 l 2
 262.5 276.205078125 254.180664062 294.077148438 241.482421875 301.462890625 c 2
 241.392578125 301.515625 l 1
EndSplineSet
EndChar

StartChar: percent
Encoding: 37 37 67
Width: 735
Flags: HMW
LayerCount: 2
Fore
SplineSet
489.7734375 769.87890625 m 1
 620.2265625 702.12109375 l 1
 245.2265625 -19.87890625 l 1
 114.7734375 47.87890625 l 1
 489.7734375 769.87890625 l 1
210 770 m 0
 292.131835938 770 360 702.131835938 360 620 c 0
 360 537.868164062 292.131835938 470 210 470 c 0
 127.868164062 470 60 537.868164062 60 620 c 0
 60 702.131835938 127.868164062 770 210 770 c 0
210 660 m 0
 192.720703125 660 180 637.279296875 180 620 c 0
 180 602.720703125 192.720703125 580 210 580 c 0
 227.279296875 580 240 602.720703125 240 620 c 0
 240 637.279296875 227.279296875 660 210 660 c 0
525 280 m 4
 607.131835938 280 675 212.131835938 675 130 c 4
 675 47.8681640625 607.131835938 -20 525 -20 c 4
 442.868164062 -20 375 47.8681640625 375 130 c 4
 375 212.131835938 442.868164062 280 525 280 c 4
525 170 m 4
 507.720703125 170 495 147.279296875 495 130 c 4
 495 112.720703125 507.720703125 90 525 90 c 4
 542.279296875 90 555 112.720703125 555 130 c 4
 555 147.279296875 542.279296875 170 525 170 c 4
EndSplineSet
EndChar

StartChar: ampersand
Encoding: 38 38 68
Width: 1000
Flags: HM
LayerCount: 2
Fore
SplineSet
229.712890625 770 m 2
 229.880859375 770 l 2
 300.697265625 770 361.38671875 720.731445312 379.326171875 655.08203125 c 1
 234.662109375 616.318359375 l 1
 234.418945312 620.763671875 233.036132812 630 229.798828125 630 c 2
 229.712890625 630 l 2
 226.063476562 630 224.712890625 618.649414062 224.712890625 615 c 2
 224.712890625 535 l 2
 224.712890625 534.327148438 224.775390625 533.342773438 224.873046875 532.265625 c 2
 356.591796875 301.21484375 l 1
 387.681640625 346.888671875 l 1
 515.875 272.875 l 1
 441.8671875 151.62890625 l 1
 501.62890625 53.111328125 l 1
 375.01171875 -19.990234375 l 1
 347.666015625 21.39453125 l 1
 313.680664062 -4.486328125 271.443359375 -20 225.922851562 -20 c 2
 225.712890625 -20 l 2
 114.763671875 -20 23.212890625 71.55078125 23.212890625 182.5 c 2
 23.212890625 317.5 l 2
 23.212890625 376.708984375 49.2890625 430.387695312 90.46875 467.58203125 c 1
 90.4375 467.645507812 l 2
 80.38671875 488.083984375 74.712890625 510.95703125 74.712890625 535 c 2
 74.712890625 615 l 2
 74.712890625 699.715820312 144.997070312 770 229.712890625 770 c 2
173.47265625 323.103515625 m 1
 173.30078125 321.23046875 173.212890625 319.360351562 173.212890625 317.5 c 2
 173.212890625 182.5 l 2
 173.212890625 152.6171875 195.830078125 120 225.712890625 120 c 2
 225.836914062 120 l 2
 245.854492188 120 260.048299154 135.50004069 271.427734375 153.439453125 c 1
 173.47265625 323.103515625 l 1
EndSplineSet
EndChar

StartChar: quotesingle
Encoding: 39 39 69
Width: 250
Flags: HMW
LayerCount: 2
Fore
SplineSet
50 500 m 5
 50 750 l 5
 200 750 l 5
 200 500 l 5
 50 500 l 5
EndSplineSet
EndChar

StartChar: parenleft
Encoding: 40 40 70
Width: 286
Flags: HMW
LayerCount: 2
Fore
SplineSet
115.5625 800 m 1
 256.369140625 750.291015625 l 1
 252.427734375 738.993164062 248.6328125 727.642578125 244.987304688 716.2421875 c 0
 202.309570312 582.784179688 180 442.4921875 180 300.671875 c 0
 180 179.624023438 196.258789062 59.6904296875 227.557617188 -55.8310546875 c 0
 230.615234375 -67.1171875 233.81640625 -78.3603515625 237.16015625 -89.55859375 c 1
 94 -132.76953125 l 1
 90.712890625 -121.880859375 87.548828125 -110.952148438 84.5078125 -99.984375 c 0
 48.642578125 29.3857421875 30 164.072265625 30 300.671875 c 0
 30 459.41015625 55.1728515625 615.564453125 103.296875 763.795898438 c 0
 107.232421875 775.91796875 111.321289062 787.987304688 115.5625 800 c 1
EndSplineSet
EndChar

StartChar: parenright
Encoding: 41 41 71
Width: 286
Flags: HMW
LayerCount: 2
Fore
SplineSet
170.806640625 800 m 1
 30 750.291015625 l 1
 33.94140625 738.993164062 37.736328125 727.642578125 41.3818359375 716.2421875 c 0
 84.0595703125 582.784179688 106.369140625 442.4921875 106.369140625 300.671875 c 0
 106.369140625 179.624023438 90.1103515625 59.6904296875 58.8115234375 -55.8310546875 c 0
 55.75390625 -67.1171875 52.552734375 -78.3603515625 49.208984375 -89.55859375 c 1
 192.369140625 -132.76953125 l 1
 195.65625 -121.880859375 198.8203125 -110.952148438 201.861328125 -99.984375 c 0
 237.7265625 29.3857421875 256.369140625 164.072265625 256.369140625 300.671875 c 0
 256.369140625 459.41015625 231.196289062 615.564453125 183.072265625 763.795898438 c 0
 179.13671875 775.91796875 175.047851562 787.987304688 170.806640625 800 c 1
EndSplineSet
EndChar

StartChar: asterisk
Encoding: 42 42 72
Width: 477
Flags: HMW
LayerCount: 2
Fore
SplineSet
178.751953125 750 m 1
 298.751953125 750 l 1
 298.751953125 632.583984375 l 1
 410.421875 668.8671875 l 1
 447.50390625 554.740234375 l 1
 335.833984375 518.45703125 l 1
 404.849609375 423.462890625 l 1
 307.767578125 352.9296875 l 1
 238.751953125 451.921875 l 1
 169.736328125 352.9296875 l 1
 72.654296875 423.462890625 l 1
 145.669921875 518.45703125 l 1
 30 554.740234375 l 1
 67.08203125 668.8671875 l 1
 178.751953125 632.583984375 l 1
 178.751953125 750 l 1
EndSplineSet
EndChar

StartChar: plus
Encoding: 43 43 73
Width: 535
Flags: HMW
LayerCount: 2
Fore
SplineSet
192 612 m 1
 342 612 l 1
 342 445 l 1
 505 445 l 5
 505 305 l 1
 342 305 l 1
 342 137 l 1
 192 137 l 1
 192 305 l 1
 30 305 l 1
 30 445 l 1
 192 445 l 1
 192 612 l 1
EndSplineSet
EndChar

StartChar: comma
Encoding: 44 44 74
Width: 276
Flags: HMW
LayerCount: 2
Fore
SplineSet
46.603515625 80 m 0
 46.603515625 135.19140625 91.412109375 180 146.603515625 180 c 0
 201.794921875 180 246.603515625 135.19140625 246.603515625 80 c 0
 246.603515625 66.5927734375 243.916015625 53.7353515625 239.12109375 42.046875 c 2
 170.953125 -145.240234375 l 1
 30 -93.9375 l 1
 69.939453125 15.79296875 l 1
 55.3935546875 33.1611328125 46.603515625 55.595703125 46.603515625 80 c 0
EndSplineSet
EndChar

StartChar: period
Encoding: 46 46 75
Width: 260
Flags: HMW
LayerCount: 2
Fore
SplineSet
230 80 m 4
 230 24.80859375 185.19140625 -20 130 -20 c 4
 74.80859375 -20 30 24.80859375 30 80 c 4
 30 135.19140625 74.80859375 180 130 180 c 4
 185.19140625 180 230 135.19140625 230 80 c 4
EndSplineSet
EndChar

StartChar: hyphen
Encoding: 45 45 76
Width: 410
Flags: HMW
LayerCount: 2
Fore
SplineSet
30 445 m 5
 380 445 l 5
 380 305 l 5
 30 305 l 5
 30 445 l 5
EndSplineSet
EndChar

StartChar: slash
Encoding: 47 47 77
Width: 397
Flags: HMW
LayerCount: 2
Fore
SplineSet
217.5 750 m 1
 367.9921875 750 l 1
 180.4921875 0 l 1
 30 0 l 1
 217.5 750 l 1
EndSplineSet
EndChar

StartChar: colon
Encoding: 58 58 78
Width: 260
Flags: HMW
LayerCount: 2
Fore
SplineSet
230 80 m 4
 230 24.80859375 185.19140625 -20 130 -20 c 4
 74.80859375 -20 30 24.80859375 30 80 c 4
 30 135.19140625 74.80859375 180 130 180 c 4
 185.19140625 180 230 135.19140625 230 80 c 4
230 420 m 4
 230 364.80859375 185.19140625 320 130 320 c 4
 74.80859375 320 30 364.80859375 30 420 c 4
 30 475.19140625 74.80859375 520 130 520 c 4
 185.19140625 520 230 475.19140625 230 420 c 4
EndSplineSet
EndChar

StartChar: semicolon
Encoding: 59 59 79
Width: 276
Flags: HMW
LayerCount: 2
Fore
SplineSet
246.603515625 420 m 0
 246.603515625 364.80859375 201.794921875 320 146.603515625 320 c 0
 91.412109375 320 46.603515625 364.80859375 46.603515625 420 c 0
 46.603515625 475.19140625 91.412109375 520 146.603515625 520 c 0
 201.794921875 520 246.603515625 475.19140625 246.603515625 420 c 0
46.603515625 80 m 0
 46.603515625 135.19140625 91.412109375 180 146.603515625 180 c 0
 201.794921875 180 246.603515625 135.19140625 246.603515625 80 c 0
 246.603515625 66.5927734375 243.916015625 53.7353515625 239.12109375 42.046875 c 2
 170.953125 -145.240234375 l 1
 30 -93.9375 l 1
 69.939453125 15.79296875 l 1
 55.3935546875 33.1611328125 46.603515625 55.595703125 46.603515625 80 c 0
EndSplineSet
EndChar

StartChar: less
Encoding: 60 60 81
Width: 484
Flags: HMW
LayerCount: 2
Fore
SplineSet
370.333984375 676 m 5
 454.365234375 557.83203125 l 5
 197.1171875 374.900390625 l 5
 454.365234375 191.96875 l 5
 370.333984375 73.80078125 l 5
 30 315.81640625 l 5
 30 433.984375 l 5
 370.333984375 676 l 5
EndSplineSet
EndChar

StartChar: greater
Encoding: 62 62 82
Width: 484
Flags: HMW
LayerCount: 2
Fore
SplineSet
114.03125 676 m 5
 30 557.83203125 l 5
 287.248046875 374.900390625 l 5
 30 191.96875 l 5
 114.03125 73.80078125 l 5
 454.365234375 315.81640625 l 5
 454.365234375 433.984375 l 5
 114.03125 676 l 5
EndSplineSet
EndChar

StartChar: equal
Encoding: 61 61 83
Width: 397
Flags: HMW
LayerCount: 2
Fore
SplineSet
30 578 m 1
 367.5 578 l 1
 367.5 438 l 1
 30 438 l 1
 30 578 l 1
30 313 m 1
 367.5 313 l 1
 367.5 173 l 1
 30 173 l 1
 30 313 l 1
EndSplineSet
EndChar

StartChar: question
Encoding: 63 63 84
Width: 430
Flags: HMW
LayerCount: 2
Fore
SplineSet
215 770 m 6
 215.102539062 770 l 6
 305.294921875 770 380 695.205078125 380 605 c 6
 380 464.369140625 l 6
 380 405.377929688 348.057617188 352.991210938 300.709960938 323.806640625 c 6
 300.611328125 323.74609375 l 6
 294.00390625 319.81640625 290 307.611328125 290 300 c 6
 290 250 l 5
 140 250 l 5
 140 300 l 6
 140 359.116210938 172.079101562 411.602539062 219.58203125 440.765625 c 6
 219.682617188 440.829101562 l 6
 226.130859375 444.912109375 230 456.875 230 464.369140625 c 6
 230 605 l 6
 230 614.131835938 224.225585938 630 215.122070312 630 c 6
 215 630 l 6
 205.827148438 630 200 614.172851562 200 605 c 5
 50 605 l 5
 50 695.23828125 124.76171875 770 215 770 c 6
115 80 m 4
 115 135.228515625 159.771484375 180 215 180 c 4
 270.228515625 180 315 135.228515625 315 80 c 4
 315 24.771484375 270.228515625 -20 215 -20 c 4
 159.771484375 -20 115 24.771484375 115 80 c 4
EndSplineSet
EndChar

StartChar: at
Encoding: 64 64 85
Width: 767
Flags: HMW
LayerCount: 2
Fore
SplineSet
383.75 780 m 2
 383.892578125 780 l 2
 475.389648438 780 558.635742188 742.525390625 619.0859375 682.240234375 c 0
 679.78515625 621.706054688 717.5 538.133789062 717.5 446.25 c 2
 717.5 122.5 l 2
 717.5 35.412109375 645.330078125 -36.875 558.256835938 -36.875 c 2
 558.125 -36.875 l 2
 477.540039062 -36.875 409.655273438 24.916015625 399.95703125 103.137695312 c 2
 399.935546875 108.3125 l 1
 396.6328125 103.78125 389.26171875 102.5 383.833984375 102.5 c 2
 383.75 102.5 l 2
 293.51171875 102.5 218.75 177.26171875 218.75 267.5 c 2
 218.75 377.5 l 2
 218.75 467.73828125 293.51171875 542.5 383.75 542.5 c 2
 383.858398438 542.5 l 2
 417.974609375 542.5 454.870117188 528.76171875 476.349609375 507.572265625 c 1
 478.75 522.5 l 1
 548.75 522.5 l 1
 548.75 122.5 l 2
 548.75 116.43359375 552.05859375 103.125 558.125 103.125 c 2
 558.200195312 103.125 l 2
 564.219726562 103.125 567.5 116.458984375 567.5 122.5 c 2
 567.5 446.25 l 2
 567.5 496.158203125 548.158203125 543.454101562 516.470703125 578.822265625 c 0
 483.19140625 615.967773438 436.294921875 640 383.889648438 640 c 2
 383.75 640 l 2
 331.360351562 640 284.46875 616.067382812 251.16796875 578.9765625 c 0
 219.3984375 543.591796875 200 496.23046875 200 446.25 c 2
 200 221.25 l 2
 200 171.26953125 219.3984375 123.908203125 251.16796875 88.5234375 c 0
 284.46875 51.4326171875 331.360351562 27.5 383.75 27.5 c 1
 383.75 -112.5 l 1
 291.998046875 -112.5 208.533203125 -74.89453125 148.01953125 -14.34765625 c 0
 87.55078125 46.1552734375 50 129.565429688 50 221.25 c 2
 50 446.25 l 2
 50 537.934570312 87.55078125 621.344726562 148.01953125 681.84765625 c 0
 208.533203125 742.39453125 291.998046875 780 383.75 780 c 2
383.75 402.5 m 2
 374.577148438 402.5 368.75 386.672851562 368.75 377.5 c 2
 368.75 267.5 l 2
 368.75 258.327148438 374.577148438 242.5 383.75 242.5 c 2
 383.841796875 242.5 l 2
 392.961914062 242.5 398.75 258.358398438 398.75 267.5 c 2
 398.75 377.5 l 2
 398.75 386.64453125 392.958984375 402.5 383.833984375 402.5 c 2
 383.75 402.5 l 2
EndSplineSet
EndChar

StartChar: backslash
Encoding: 92 92 86
Width: 397
Flags: HMW
LayerCount: 2
Fore
SplineSet
180.4921875 750 m 5
 30 750 l 5
 217.5 0 l 5
 367.9921875 0 l 5
 180.4921875 750 l 5
EndSplineSet
EndChar

StartChar: bracketleft
Encoding: 91 91 87
Width: 300
Flags: HMW
LayerCount: 2
Fore
SplineSet
30 800 m 1
 270 800 l 1
 270 660 l 1
 180 660 l 1
 180 15 l 1
 270 15 l 1
 270 -125 l 1
 30 -125 l 1
 30 800 l 1
EndSplineSet
EndChar

StartChar: bracketright
Encoding: 93 93 88
Width: 300
Flags: HMW
LayerCount: 2
Fore
SplineSet
270 800 m 1
 30 800 l 1
 30 660 l 1
 120 660 l 1
 120 15 l 1
 30 15 l 1
 30 -125 l 1
 270 -125 l 1
 270 800 l 1
EndSplineSet
EndChar

StartChar: asciicircum
Encoding: 94 94 89
Width: 471
Flags: HMW
LayerCount: 2
Fore
SplineSet
171.048828125 750 m 5
 300.662109375 750 l 5
 441.7109375 468.75 l 5
 279.5 468.75 l 5
 235.85546875 555.775390625 l 5
 192.2109375 468.75 l 5
 30 468.75 l 5
 171.048828125 750 l 5
EndSplineSet
EndChar

StartChar: underscore
Encoding: 95 95 90
Width: 397
Flags: HMW
LayerCount: 2
Fore
SplineSet
30 -25 m 5
 367.5 -25 l 5
 367.5 -165 l 5
 30 -165 l 5
 30 -25 l 5
EndSplineSet
EndChar

StartChar: grave
Encoding: 96 96 91
Width: 299
Flags: HMW
LayerCount: 2
Fore
SplineSet
30 750 m 1
 199.7421875 750 l 1
 269.080078125 575 l 1
 159.337890625 575 l 1
 30 750 l 1
EndSplineSet
EndChar

StartChar: bar
Encoding: 124 124 92
Width: 250
Flags: HW
LayerCount: 2
Fore
SplineSet
50 800 m 1
 200 800 l 1
 200 -125 l 1
 50 -125 l 1
 50 800 l 1
EndSplineSet
EndChar

StartChar: braceleft
Encoding: 123 123 93
Width: 260
Flags: HW
LayerCount: 2
Fore
SplineSet
230 800 m 1
 230 660 l 1
 215.3046875 660 205 639.6953125 205 625 c 2
 205 442.5 l 2
 205 403.294921875 191.712890625 366.86328125 169.453125 337.5 c 1
 191.712890625 308.13671875 205 271.705078125 205 232.5 c 2
 205 50 l 2
 205 35.3046875 215.3046875 15 230 15 c 1
 230 -125 l 1
 134.23828125 -125 55 -45.76171875 55 50 c 2
 55 232.5 l 2
 55 247.1953125 44.6953125 267.5 30 267.5 c 1
 30 407.5 l 1
 44.6953125 407.5 55 427.8046875 55 442.5 c 2
 55 625 l 2
 55 720.76171875 134.23828125 800 230 800 c 1
EndSplineSet
EndChar

StartChar: braceright
Encoding: 125 125 94
Width: 260
Flags: HW
LayerCount: 2
Fore
SplineSet
30 800 m 1
 30 660 l 1
 44.6953125 660 55 639.6953125 55 625 c 2
 55 442.5 l 2
 55 403.294921875 68.287109375 366.86328125 90.546875 337.5 c 1
 68.287109375 308.13671875 55 271.705078125 55 232.5 c 2
 55 50 l 2
 55 35.3046875 44.6953125 15 30 15 c 1
 30 -125 l 1
 125.76171875 -125 205 -45.76171875 205 50 c 2
 205 232.5 l 2
 205 247.1953125 215.3046875 267.5 230 267.5 c 1
 230 407.5 l 1
 215.3046875 407.5 205 427.8046875 205 442.5 c 2
 205 625 l 2
 205 720.76171875 125.76171875 800 30 800 c 1
EndSplineSet
EndChar

StartChar: asciitilde
Encoding: 126 126 95
Width: 414
Flags: HW
LayerCount: 2
Fore
SplineSet
128.171875 462.615234375 m 0
 171.92578125 470.330078125 209.22265625 458.212890625 243.416992188 434.26953125 c 0
 249.260742188 430.075195312 257.033203125 424.5703125 261.818359375 425.4140625 c 0
 266.603515625 426.2578125 269.212890625 432.526367188 270.171875 438.987304688 c 1
 390.637695312 354.635742188 l 1
 366.694335938 320.44140625 329.8828125 295.255859375 286.12890625 287.541015625 c 0
 242.375 279.826171875 205.078125 291.943359375 170.883789062 315.88671875 c 0
 164.520507812 320.611328125 157.267578125 325.5859375 152.482421875 324.7421875 c 0
 147.697265625 323.8984375 145.087890625 317.629882812 144.12890625 311.168945312 c 1
 23.6630859375 395.520507812 l 1
 47.6064453125 429.71484375 84.41796875 454.900390625 128.171875 462.615234375 c 0
EndSplineSet
EndChar

StartChar: exclamdown
Encoding: 161 161 96
Width: 300
Flags: HW
LayerCount: 2
Fore
SplineSet
75 350 m 1
 75 -150 l 1
 225 -150 l 1
 225 350 l 1
 75 350 l 1
50 520 m 0
 50 464.771484375 94.771484375 420 150 420 c 0
 205.228515625 420 250 464.771484375 250 520 c 0
 250 575.228515625 205.228515625 620 150 620 c 0
 94.771484375 620 50 575.228515625 50 520 c 0
EndSplineSet
EndChar

StartChar: questiondown
Encoding: 191 191 97
Width: 430
Flags: HW
LayerCount: 2
Fore
SplineSet
215 -170 m 2
 214.897460938 -170 l 2
 124.705078125 -170 50 -95.205078125 50 -5 c 2
 50 135.630859375 l 2
 50 194.622070312 81.9423828125 247.008789062 129.290039062 276.193359375 c 2
 129.388671875 276.25390625 l 2
 135.99609375 280.18359375 140 292.388671875 140 300 c 2
 140 350 l 1
 290 350 l 1
 290 300 l 2
 290 240.883789062 257.920898438 188.397460938 210.41796875 159.234375 c 2
 210.317382812 159.170898438 l 2
 203.869140625 155.087890625 200 143.125 200 135.630859375 c 2
 200 -5 l 2
 200 -14.1318359375 205.774414062 -30 214.877929688 -30 c 2
 215 -30 l 2
 224.172851562 -30 230 -14.1728515625 230 -5 c 1
 380 -5 l 1
 380 -95.23828125 305.23828125 -170 215 -170 c 2
315 520 m 0
 315 464.771484375 270.228515625 420 215 420 c 0
 159.771484375 420 115 464.771484375 115 520 c 0
 115 575.228515625 159.771484375 620 215 620 c 0
 270.228515625 620 315 575.228515625 315 520 c 0
EndSplineSet
EndChar

StartChar: uni00AD
Encoding: 173 173 98
Width: 390
Flags: HW
LayerCount: 2
Fore
SplineSet
30 445 m 1
 360 445 l 1
 360 305 l 1
 30 305 l 1
 30 445 l 1
EndSplineSet
EndChar

StartChar: brokenbar
Encoding: 166 166 99
Width: 250
Flags: HW
LayerCount: 2
Fore
SplineSet
50 800 m 1
 200 800 l 1
 200 412.5 l 1
 50 412.5 l 1
 50 800 l 1
50 262.5 m 1
 200 262.5 l 1
 200 -125 l 1
 50 -125 l 1
 50 262.5 l 1
EndSplineSet
EndChar

StartChar: cent
Encoding: 162 162 100
Width: 425
Flags: HW
LayerCount: 2
Fore
SplineSet
192.408203125 708 m 1
 292.408203125 708 l 1
 292.408203125 601.802734375 l 1
 292.516601562 601.775390625 l 2
 328.35546875 592.68359375 360.377929688 574.018554688 385.71484375 548.669921875 c 1
 281.77734375 444.732421875 l 1
 274.815429688 454.520507812 265.540039062 462.322265625 255.015625 465.874023438 c 2
 254.908203125 465.91015625 l 1
 254.908203125 210.08984375 l 1
 255.051757812 210.138671875 l 2
 265.57421875 213.696289062 274.842773438 221.509765625 281.798828125 231.30078125 c 1
 385.73828125 127.361328125 l 1
 360.409179688 102.001953125 328.395507812 83.3212890625 292.559570312 74.2275390625 c 2
 292.408203125 74.189453125 l 1
 292.408203125 -32 l 1
 192.408203125 -32 l 1
 192.408203125 74.232421875 l 1
 192.23046875 74.27734375 l 2
 104.701171875 96.5732421875 40 176.015625 40 270.5 c 2
 40 405.5 l 2
 40 500.013671875 104.74609375 579.436523438 192.311523438 601.733398438 c 2
 192.408203125 601.7578125 l 1
 192.408203125 708 l 1
229.908203125 465.873046875 m 1
 229.797851562 465.8359375 l 2
 206.922851562 458.026367188 189.998046875 430.10546875 189.998046875 405.5 c 2
 189.998046875 270.5 l 2
 189.998046875 245.92578125 206.87109375 218.01953125 229.7109375 210.194335938 c 2
 229.908203125 210.126953125 l 1
 229.908203125 465.873046875 l 1
EndSplineSet
EndChar

StartChar: sterling
Encoding: 163 163 101
Width: 516
Flags: HW
LayerCount: 2
Fore
SplineSet
246.25 770 m 2
 246.405273438 770 l 2
 341.052734375 770 421.779296875 704.471679688 445.4609375 616.79296875 c 1
 300.92578125 578.064453125 l 1
 295.088867188 605.115234375 273.515625 630 246.384765625 630 c 2
 246.25 630 l 2
 214.295898438 630 190 595.704101562 190 563.75 c 2
 190 499.349609375 l 2
 190 483.256835938 196.16796875 466.575195312 206.3671875 453.974609375 c 0
 224.53515625 431.264648438 237.5703125 404.32421875 243.650390625 375 c 1
 327.5 375 l 1
 327.5 235 l 1
 247.5 235 l 1
 247.500558672 234.957356778 247.500413196 234.914713547 247.5 234.872070312 c 1
 247.5 187.5 l 2
 247.5 171.12109375 245.33203125 155.19921875 241.28515625 140 c 1
 360 140 l 2
 365.5859375 140 372.595703125 144.41796875 376.46484375 148.53515625 c 1
 476.33984375 48.66015625 l 1
 446.370117188 18.6904296875 405.119140625 0 360 0 c 2
 60 0 l 1
 60 140 l 1
 81.5986328125 140 97.5 165.901367188 97.5 187.5 c 2
 97.5 234.7421875 l 1
 97.4988651204 234.81550248 97.4958736399 234.86816771 97.5 235 c 1
 40 235 l 1
 40 375 l 1
 82.271484375 375 l 1
 82.2470703125 375.032226562 82.2216796875 375.064453125 82.197265625 375.096679688 c 0
 55.779296875 409.770507812 40 452.879882812 40 499.349609375 c 2
 40 563.75 l 2
 40 676.770507812 133.229492188 770 246.25 770 c 2
EndSplineSet
EndChar

StartChar: currency
Encoding: 164 164 102
Width: 507
Flags: HW
LayerCount: 2
Fore
SplineSet
142.53125 613 m 1
 185.9296875 569.6015625 l 1
 207.008789062 578.135742188 229.956054688 582.853515625 253.896484375 582.853515625 c 2
 253.993164062 582.853515625 l 2
 277.8984375 582.853515625 300.814453125 578.124023438 321.865234375 569.6015625 c 1
 365.26171875 613 l 1
 467.79296875 510.46875 l 1
 424.39453125 467.0703125 l 1
 432.928710938 445.991210938 437.646484375 423.043945312 437.646484375 399.103515625 c 2
 437.646484375 276.603515625 l 2
 437.646484375 252.663085938 432.928710938 229.715820312 424.39453125 208.63671875 c 1
 467.79296875 165.23828125 l 1
 365.26171875 62.70703125 l 1
 321.86328125 106.10546875 l 1
 300.813476562 97.5830078125 277.899414062 92.853515625 253.994140625 92.853515625 c 2
 253.896484375 92.853515625 l 2
 229.956054688 92.853515625 207.008789062 97.5712890625 185.9296875 106.10546875 c 1
 142.53125 62.70703125 l 1
 40 165.23828125 l 1
 83.3984375 208.63671875 l 1
 74.8642578125 229.715820312 70.146484375 252.663085938 70.146484375 276.603515625 c 2
 70.146484375 399.103515625 l 2
 70.146484375 423.043945312 74.8642578125 445.991210938 83.3984375 467.0703125 c 1
 40 510.46875 l 1
 142.53125 613 l 1
253.896484375 442.853515625 m 2
 234.368164062 442.853515625 220.146484375 418.631835938 220.146484375 399.103515625 c 2
 220.146484375 276.603515625 l 2
 220.146484375 257.075195312 234.368164062 232.853515625 253.896484375 232.853515625 c 2
 254 232.853515625 l 2
 273.474609375 232.853515625 287.646484375 257.110351562 287.646484375 276.603515625 c 2
 287.646484375 399.103515625 l 2
 287.646484375 418.603515625 273.46484375 442.853515625 253.98046875 442.853515625 c 2
 253.896484375 442.853515625 l 2
EndSplineSet
EndChar

StartChar: logicalnot
Encoding: 172 172 103
Width: 397
Flags: HW
LayerCount: 2
Fore
SplineSet
30 445 m 1
 367.5 445 l 1
 367.5 220 l 1
 217.5 220 l 1
 217.5 305 l 1
 30 305 l 1
 30 445 l 1
EndSplineSet
EndChar

StartChar: acute
Encoding: 180 180 104
Width: 299
Flags: HW
LayerCount: 2
Fore
SplineSet
269.080078125 750 m 5
 99.337890625 750 l 5
 30 575 l 5
 139.7421875 575 l 5
 269.080078125 750 l 5
EndSplineSet
EndChar

StartChar: dieresis
Encoding: 168 168 105
Width: 485
Flags: HW
LayerCount: 2
Fore
SplineSet
130 550 m 0
 74.771484375 550 30 594.771484375 30 650 c 0
 30 705.228515625 74.771484375 750 130 750 c 0
 185.228515625 750 230 705.228515625 230 650 c 0
 230 594.771484375 185.228515625 550 130 550 c 0
355 550 m 0
 299.771484375 550 255 594.771484375 255 650 c 0
 255 705.228515625 299.771484375 750 355 750 c 0
 410.228515625 750 455 705.228515625 455 650 c 0
 455 594.771484375 410.228515625 550 355 550 c 0
EndSplineSet
EndChar

StartChar: dotlessi
Encoding: 305 305 108
Width: 300
Flags: HW
LayerCount: 2
Fore
SplineSet
75 500 m 5
 225 500 l 5
 225 140.047851562 l 5
 225 139.995117188 l 5
 225 0 l 5
 75 0 l 5
 75 140 l 5
 75 140.1015625 l 5
 75 358.420898438 l 5
 75 359.9921875 l 5
 75 500 l 5
EndSplineSet
EndChar

StartChar: germandbls
Encoding: 223 223 139
Width: 467
Flags: HW
LayerCount: 2
Fore
SplineSet
224.375 770 m 6
 224.551757812 770 l 6
 319.888671875 770 398.75 690.982421875 398.75 595.625 c 6
 398.75 479.375 l 6
 398.75 445.73828125 384.786132812 409.443359375 362.041015625 387.345703125 c 5
 397.770507812 362.081054688 417.5 315.26953125 417.5 270.625 c 6
 417.5 154.375 l 6
 417.5 58.958984375 338.541015625 -20 243.125 -20 c 6
 223.375 -20 l 5
 223.375 120 l 5
 243.125 120 l 6
 257.475585938 120 267.5 140.024414062 267.5 154.375 c 6
 267.5 270.625 l 6
 267.5 284.975585938 257.475585938 305 243.125 305 c 6
 223.375 305 l 5
 223.375 445 l 5
 224.375 445 l 6
 238.725585938 445 248.75 465.024414062 248.75 479.375 c 6
 248.75 595.625 l 6
 248.75 609.951171875 238.758789062 630 224.447265625 630 c 6
 224.375 630 l 6
 210.024414062 630 200 609.975585938 200 595.625 c 6
 200 0 l 5
 50 0 l 5
 50 595.625 l 6
 50 691.041015625 128.958984375 770 224.375 770 c 6
EndSplineSet
EndChar

StartChar: degree
Encoding: 176 176 140
Width: 350
Flags: HW
LayerCount: 2
Fore
SplineSet
175 770 m 0
 254.489257812 770 320 704.489257812 320 625 c 0
 320 545.510742188 254.489257812 480 175 480 c 0
 95.5107421875 480 30 545.510742188 30 625 c 0
 30 704.489257812 95.5107421875 770 175 770 c 0
175 659 m 0
 157.5546875 659 147 642.4453125 147 625 c 0
 147 607.5546875 157.5546875 591 175 591 c 0
 192.4453125 591 203 607.5546875 203 625 c 0
 203 642.4453125 192.4453125 659 175 659 c 0
EndSplineSet
EndChar

StartChar: uni00B9
Encoding: 185 185 141
Width: 190
Flags: HW
LayerCount: 2
Fore
SplineSet
40 750 m 5
 150 750 l 5
 150 375 l 5
 40 375 l 5
 40 644.90234375 l 5
 40 645.002929688 l 5
 40 750 l 5
EndSplineSet
EndChar

StartChar: uni00B2
Encoding: 178 178 142
Width: 262
Flags: HW
LayerCount: 2
Fore
SplineSet
131.25 770 m 6
 131.381835938 770 l 6
 186.649414062 770 232.5 724.033203125 232.5 668.75 c 4
 232.5 657.08984375 230.452148438 645.850585938 226.71484375 635.3671875 c 6
 174.474609375 480 l 5
 230 480 l 5
 230 375 l 5
 30 375 l 5
 132.490234375 668.31640625 l 6
 132.513671875 668.391601562 132.506835938 668.560546875 132.5 668.75 c 4
 132.471679688 669.469726562 132.0078125 670 131.37109375 670 c 6
 131.25 670 l 6
 130.567382812 670 130 669.366210938 130 668.75 c 5
 30 668.75 l 5
 30 724.076171875 75.923828125 770 131.25 770 c 6
EndSplineSet
EndChar

StartChar: uni00B3
Encoding: 179 179 143
Width: 272
Flags: HW
LayerCount: 2
Fore
SplineSet
136.25 770 m 2
 136.31640625 770 l 2
 191.61328125 770 237.5 724.0546875 237.5 668.75 c 2
 237.5 615.75 l 2
 237.5 596.309570312 229.75 575 217.068359375 562.5 c 1
 231.5 548 237.5 528.690429688 237.5 509.25 c 2
 237.5 456.25 l 2
 237.5 400.959960938 191.637695312 355 136.360351562 355 c 2
 136.25 355 l 2
 80.923828125 355 35 400.923828125 35 456.25 c 1
 135 456.25 l 1
 135 454.967773438 134.967773438 451 136.25 451 c 2
 136.317382812 451 l 2
 137.5390625 451 137.5 454.990234375 137.5 456.25 c 2
 137.5 509.25 l 2
 137.5 510.532226562 137.532226562 514.5 136.25 514.5 c 2
 124.25 514.5 l 1
 124.25 610.5 l 1
 136.25 610.5 l 2
 137.532226562 610.5 137.5 614.467773438 137.5 615.75 c 2
 137.5 668.75 l 2
 137.5 670.01953125 137.534179688 674 136.2890625 674 c 2
 136.25 674 l 2
 134.967773438 674 135 670.032226562 135 668.75 c 1
 35 668.75 l 1
 35 724.076171875 80.923828125 770 136.25 770 c 2
EndSplineSet
EndChar

StartChar: periodcentered
Encoding: 183 183 144
Width: 260
Flags: HW
LayerCount: 2
Fore
SplineSet
230 375 m 4
 230 319.80859375 185.19140625 275 130 275 c 4
 74.80859375 275 30 319.80859375 30 375 c 4
 30 430.19140625 74.80859375 475 130 475 c 4
 185.19140625 475 230 430.19140625 230 375 c 4
EndSplineSet
EndChar

StartChar: mu
Encoding: 181 181 145
Width: 505
Flags: HW
LayerCount: 2
Fore
SplineSet
252.5 -20 m 6
 228.16015625 -20 205.905273438 -10.5390625 200.12109375 -4 c 5
 200.021484375 -200 l 5
 50 -200 l 5
 50 500 l 5
 200 499.977539062 l 5
 200 182.5 l 6
 200 153.504882812 223.504882812 120 252.5 120 c 6
 252.712890625 120 l 6
 281.625 120.1171875 305 153.587890625 305 182.5 c 6
 305 500 l 5
 455 500 l 5
 455 182.5 l 6
 455 70.6923828125 364.387695312 -19.9755859375 252.591796875 -20 c 6
 252.5 -20 l 6
EndSplineSet
EndChar

StartChar: Oslash
Encoding: 216 216 146
Width: 682
Flags: HW
LayerCount: 2
Fore
SplineSet
436.748046875 795.392578125 m 1
 570.708984375 739.904296875 l 1
 548.056640625 685.216796875 l 1
 603.138671875 631.30859375 637.5 556.280273438 637.5 473.75 c 2
 637.5 276.25 l 2
 637.5 113.560546875 504.034179688 -19.9697265625 341.357421875 -20 c 2
 341.25 -20 l 2
 313.333984375 -20.0048828125 286.278320312 -16.0771484375 260.607421875 -8.74609375 c 1
 245.427734375 -45.392578125 l 1
 111.466796875 10.095703125 l 1
 134.21875 65.025390625 l 1
 79.267578125 118.911132812 45 193.831054688 45 276.25 c 2
 45 473.75 l 2
 45 636.475585938 178.524414062 770.088867188 341.25 770 c 2
 341.57421875 770 l 2
 369.272460938 769.985351562 396.12109375 766.087890625 421.607421875 758.841796875 c 1
 436.748046875 795.392578125 l 1
341.25 630 m 2
 259.58984375 630.05859375 195 555.41015625 195 473.75 c 2
 195 276.25 l 2
 195 260.108398438 197.532226562 244.245117188 202.212890625 229.17578125 c 1
 367.1875 627.458984375 l 1
 358.84375 629.116210938 350.244140625 629.994140625 341.443359375 630 c 2
 341.25 630 l 2
480.150390625 521.275390625 m 1
 315.013671875 122.603515625 l 1
 323.51171875 120.89453125 332.27734375 119.99609375 341.25 120 c 2
 341.375 120 l 2
 422.975585938 120.038085938 487.5 194.631835938 487.5 276.25 c 2
 487.5 473.75 l 2
 487.5 490.051757812 484.919921875 506.071289062 480.150390625 521.275390625 c 1
EndSplineSet
EndChar

StartChar: oslash
Encoding: 248 248 147
Width: 495
Flags: HW
LayerCount: 2
Fore
SplineSet
318.0859375 545.8125 m 5
 410.205078125 506.900390625 l 5
 390.689453125 460.69921875 l 5
 427.334960938 424.05078125 450 373.418945312 450 317.5 c 6
 450 182.5 l 6
 450 70.662109375 359.337890625 -20.0537109375 247.5 -20 c 6
 247.298828125 -20 l 6
 227.76171875 -19.990234375 208.875 -17.203125 191.00390625 -12.025390625 c 5
 176.73046875 -45.8125 l 5
 84.611328125 -6.900390625 l 5
 104.1796875 39.421875 l 5
 67.611328125 76.0634765625 45 126.647460938 45 182.5 c 6
 45 317.5 l 6
 45 429.307617188 135.612304688 519.975585938 247.408203125 520 c 6
 247.5 520 l 6
 267.047851562 520.00390625 285.944335938 517.227539062 303.828125 512.060546875 c 5
 318.0859375 545.8125 l 5
247.287109375 380 m 6
 218.375 379.8828125 195 346.412109375 195 317.5 c 6
 195 254.565429688 l 6
 195 254.518554688 195 254.47265625 195 254.42578125 c 5
 248.03515625 379.98046875 l 5
 247.856445312 379.983398438 247.6796875 380 247.5 380 c 6
 247.287109375 380 l 6
300 246.0078125 m 5
 246.78125 120.01953125 l 5
 246.950195312 120.016601562 247.1171875 120.000976562 247.287109375 120 c 6
 247.5 120 l 6
 276.495117188 120 300 153.504882812 300 182.5 c 6
 300 245.860351562 l 6
 300 245.909179688 300 245.958984375 300 246.0078125 c 5
EndSplineSet
EndChar

StartChar: Euro
Encoding: 8364 8364 148
Width: 618
Flags: HW
LayerCount: 2
Fore
SplineSet
379.67578125 770 m 6
 380 770 l 6
 461.0546875 769.956054688 534.837890625 736.735351562 588.458984375 683.283203125 c 5
 485.4375 580.26171875 l 5
 458.98828125 610.356445312 421.673828125 629.969726562 379.869140625 630 c 6
 379.67578125 630 l 6
 317.49609375 630.044921875 265.208984375 586.776367188 243.81640625 530.073242188 c 6
 243.7890625 530 l 5
 380 530 l 5
 380 390 l 5
 233.42578125 390 l 5
 233.42578125 384.99609375 233.42578125 379.9921875 233.42578125 374.987304688 c 6
 233.42578125 374.893554688 l 6
 233.42578125 369.928710938 233.42578125 364.963867188 233.42578125 360 c 5
 380 360 l 5
 380 220 l 5
 243.7890625 220 l 5
 243.836914062 219.874023438 l 6
 265.232421875 163.19921875 317.517578125 120 379.67578125 120 c 6
 379.80078125 120 l 6
 419.90625 120.018554688 455.87890625 138.053710938 482.1015625 166.07421875 c 5
 584.904296875 63.271484375 l 5
 531.553710938 11.8173828125 459.151367188 -19.9853515625 379.783203125 -20 c 6
 379.67578125 -20 l 6
 236.212890625 -20 115.436523438 83.77734375 88.88671875 219.868164062 c 6
 88.861328125 220 l 5
 30 220 l 5
 30 360 l 5
 83.42578125 360 l 5
 83.42578125 364.973632812 83.42578125 369.948242188 83.42578125 374.922851562 c 6
 83.42578125 374.986328125 l 6
 83.42578125 379.991210938 83.42578125 384.995117188 83.42578125 390 c 5
 30 390 l 5
 30 530 l 5
 88.861328125 530 l 5
 88.873046875 530.05859375 l 6
 115.41015625 666.192382812 236.186523438 770.078125 379.67578125 770 c 6
EndSplineSet
EndChar

StartChar: divide
Encoding: 247 247 149
Width: 435
Flags: HW
LayerCount: 2
Fore
SplineSet
30 445 m 1
 405 445 l 1
 405 305 l 1
 30 305 l 1
 30 445 l 1
317.5 563 m 0
 317.5 507.80859375 272.69140625 463 217.5 463 c 0
 162.30859375 463 117.5 507.80859375 117.5 563 c 0
 117.5 618.19140625 162.30859375 663 217.5 663 c 0
 272.69140625 663 317.5 618.19140625 317.5 563 c 0
317.5 188 m 0
 317.5 132.80859375 272.69140625 88 217.5 88 c 0
 162.30859375 88 117.5 132.80859375 117.5 188 c 0
 117.5 243.19140625 162.30859375 288 217.5 288 c 0
 272.69140625 288 317.5 243.19140625 317.5 188 c 0
EndSplineSet
EndChar

StartChar: multiply
Encoding: 215 215 150
Width: 445
VWidth: 767
Flags: HW
LayerCount: 2
Fore
SplineSet
312.842773438 567.686523438 m 1
 415.373046875 465.15625 l 1
 325.216796875 375 l 1
 415.373046875 284.84375 l 1
 312.842773438 182.313476562 l 1
 222.686523438 272.469726562 l 1
 132.530273438 182.313476562 l 1
 30 284.84375 l 1
 120.15625 375 l 1
 30 465.15625 l 1
 132.530273438 567.686523438 l 1
 222.686523438 477.530273438 l 1
 312.842773438 567.686523438 l 1
EndSplineSet
EndChar

StartChar: Thorn
Encoding: 222 222 151
Width: 480
Flags: HW
LayerCount: 2
Fore
SplineSet
45 750 m 1
 195 750 l 1
 195 600 l 1
 240 600 l 2
 347.6953125 600 435 512.6953125 435 405 c 2
 435 350 l 2
 435 242.3046875 347.6953125 155 240 155 c 2
 195 155 l 1
 195 0 l 1
 45 0 l 1
 45 750 l 1
195 460 m 1
 195 295 l 1
 240 295 l 2
 264.852539062 295 285 325.147460938 285 350 c 2
 285 405 l 2
 285 429.852539062 264.852539062 460 240 460 c 2
 195 460 l 1
EndSplineSet
EndChar

StartChar: thorn
Encoding: 254 254 152
Width: 495
Flags: HWO
LayerCount: 2
Fore
SplineSet
247.591796875 -20 m 2
 247.5 -20 l 2
 209.5234375 -20 197.659179688 -7.4619140625 195.05078125 -4 c 1
 194.94921875 -200 l 1
 45 -200 l 1
 45 750 l 1
 194.94921875 750 l 1
 195.05078125 504 l 1
 197.659179688 507.461914062 209.5234375 520 247.5 520 c 2
 247.591796875 520 l 2
 359.387695312 519.975585938 450 429.307617188 450 317.5 c 2
 450 182.5 l 2
 450 70.6923828125 359.387695312 -19.9755859375 247.591796875 -20 c 2
247.712890625 120 m 2
 276.625 120.1171875 300 153.587890625 300 182.5 c 2
 300 317.5 l 2
 300 346.412109375 276.625 379.8828125 247.712890625 380 c 2
 247.5 380 l 2
 218.504882812 380 195 346.495117188 195 317.5 c 2
 195 182.5 l 2
 195 153.504882812 218.504882812 120 247.5 120 c 2
 247.712890625 120 l 2
EndSplineSet
EndChar
